<svg width="680" height="68" viewBox="0 0 680 68" fill="none" xmlns="http://www.w3.org/2000/svg">
<path d="M454.195 53.0157C453.534 53.0414 452.866 53.0595 452.218 53.0974C451.798 53.1212 451.617 53.054 451.336 53.0191C451.242 53.007 451.141 52.9826 451.055 52.9858C450.4 53.0115 449.746 53.0403 449.091 53.0691C448.892 53.1293 448.766 53.2095 448.459 53.2392C448.159 53.2674 447.805 53.268 447.471 53.2824C447.03 53.3 446.589 53.3177 446.149 53.3338C445.928 53.3419 445.748 53.3714 445.675 53.4268C445.662 53.4361 445.809 53.4589 445.89 53.4726C446.157 53.5182 446.419 53.57 446.713 53.6048C446.994 53.6381 447.341 53.5822 447.642 53.6247C448.318 53.7203 448.325 53.7187 448.839 53.6994C449.279 53.6818 449.72 53.6626 450.161 53.6495C450.248 53.6463 450.348 53.6691 450.442 53.6813C450.723 53.7146 450.904 53.7911 451.318 53.7612C451.632 53.7376 451.979 53.7324 452.306 53.7195C452.581 53.7636 452.835 53.8138 453.129 53.8487C453.404 53.882 453.484 53.908 453.338 53.9528C453.205 53.9945 453.018 54.0117 452.771 54.0152C452.55 54.0172 452.33 54.0313 452.11 54.0394C451.996 54.0442 451.889 54.0475 451.782 54.0523C451.362 54.0699 451.362 54.0699 450.592 53.9729C450.291 53.935 449.951 53.9894 449.664 53.953C449.469 53.9288 449.302 53.8922 449.115 53.8664C449.034 53.8558 448.907 53.8545 448.807 53.8577C448.473 53.8691 448.139 53.8773 447.819 53.8978C447.592 53.9121 447.459 53.9553 447.486 53.9983C447.493 54.0152 447.654 54.0395 447.747 54.0409C447.961 54.0436 448.188 54.0216 448.395 54.032C448.596 54.0424 448.803 54.0728 448.95 54.1064C449.252 54.1765 449.592 54.1129 449.879 54.1309C450.18 54.1503 450.428 54.2113 450.716 54.2477C450.789 54.2568 450.93 54.2412 451.043 54.2364C451.37 54.2251 451.698 54.2153 452.025 54.204C452.299 54.248 452.594 54.2875 452.842 54.3377C453.29 54.4291 453.772 54.4636 454.352 54.4181C454.679 54.3929 455 54.4016 455.261 54.461C455.529 54.522 455.837 54.5154 456.177 54.5025C456.491 54.4896 456.811 54.4553 457.132 54.4977C457.828 54.5918 457.835 54.5964 458.656 54.5581C458.903 54.5469 459.09 54.5435 459.278 54.5785C459.452 54.6105 459.639 54.6378 459.82 54.6682C460.147 54.6569 460.481 54.6456 460.808 54.6327C461.229 54.6151 461.463 54.6362 461.564 54.722C461.625 54.7742 461.653 54.8217 461.8 54.8568C461.974 54.8995 462.161 54.8977 462.415 54.8849C462.655 54.8738 462.829 54.8566 462.928 54.8011C462.968 54.778 463.048 54.7563 463.121 54.7378C463.181 54.7238 463.274 54.7022 463.328 54.7051C463.428 54.7111 463.562 54.7278 463.596 54.7477C463.925 54.933 463.925 54.9346 464.26 54.9877C464.628 55.047 465.01 55.1001 465.344 55.1671C465.646 55.2265 465.946 55.1999 466.273 55.1993C466.521 55.1989 466.681 55.2386 466.662 55.2786C466.649 55.3016 466.556 55.3356 466.476 55.3388C465.821 55.3706 465.16 55.3979 464.499 55.4206C464.419 55.4238 464.319 55.3963 464.225 55.3826C464.037 55.3553 463.87 55.3126 463.669 55.3037C463.469 55.2948 463.235 55.3183 463.015 55.3264C462.795 55.3344 462.561 55.3548 462.36 55.3429C462.16 55.3309 461.999 55.2866 461.811 55.2578C461.724 55.2441 461.604 55.2243 461.531 55.2291C461.043 55.2668 460.682 55.2167 460.334 55.1497C460.26 55.136 460.133 55.127 460.04 55.1303C459.265 55.1577 458.497 55.1898 457.723 55.2203C457.409 55.2332 457.154 55.1798 457.086 55.0893C457.052 55.0387 456.985 54.9881 456.984 54.9374C456.983 54.8452 456.615 54.7951 456.348 54.8064C455.907 54.8225 455.46 54.8356 455.026 54.8594C454.672 54.8784 454.371 54.8605 454.13 54.8056C453.848 54.7431 453.528 54.756 453.208 54.7734C452.967 54.7861 452.901 54.8369 452.916 54.9644C452.93 55.0673 452.817 55.0998 452.383 55.1174C451.836 55.1399 451.281 55.1624 450.727 55.1802C450.64 55.1835 450.54 55.1575 450.453 55.1438C450.266 55.1165 450.098 55.0722 449.897 55.0634C449.697 55.053 449.463 55.0764 449.243 55.086C449.023 55.0941 448.789 55.116 448.588 55.1056C448.388 55.0952 448.22 55.0494 448.04 55.0205C447.953 55.0068 447.845 54.9871 447.759 54.9903C447.318 55.0033 446.877 55.0225 446.437 55.0402C445.942 55.0595 445.942 55.0595 445.24 54.9655C444.919 54.923 444.598 54.9574 444.284 54.9702C443.951 54.9831 443.637 54.9898 443.375 54.9288C443.201 54.8891 443.007 54.8649 442.8 54.8729C442.246 54.8923 441.698 54.9163 441.144 54.9357C441.051 54.9389 440.924 54.9315 440.85 54.9178C440.495 54.8539 440.147 54.8038 439.653 54.8369C439.226 54.8653 438.765 54.8676 438.338 54.8945C438.104 54.9087 437.998 54.9581 438.045 54.9964C438.072 55.0163 438.213 55.0391 438.306 55.039C438.52 55.0401 438.753 55.0167 438.954 55.0255C439.368 55.0433 439.577 55.1719 440.118 55.1357C440.438 55.1136 440.772 55.1053 441.106 55.0986C441.193 55.0969 441.287 55.126 441.38 55.1412C441.648 55.1822 441.883 55.2355 442.27 55.2072C442.59 55.1851 442.931 55.1784 443.258 55.1656C443.779 55.1447 443.779 55.1462 444.455 55.2388C444.776 55.2828 445.096 55.2469 445.41 55.2356C445.644 55.2275 445.864 55.2117 446.051 55.2329C446.339 55.2647 446.547 55.338 446.901 55.3328C447.235 55.3276 447.562 55.3056 447.896 55.2973C448.103 55.2923 448.297 55.3166 448.465 55.3578C448.639 55.399 448.826 55.4171 449.053 55.4074C449.38 55.3946 449.714 55.3786 450.048 55.3704C450.142 55.3687 450.249 55.3823 450.336 55.3945C450.523 55.4218 450.704 55.4537 450.885 55.4826C451.212 55.4728 451.546 55.4692 451.866 55.4502C452.113 55.4359 452.287 55.4418 452.488 55.4722C452.742 55.5132 452.95 55.5866 453.364 55.5505C453.571 55.5333 453.811 55.5375 454.018 55.5217C454.272 55.5013 454.446 55.5087 454.627 55.5545C454.968 55.6414 455.396 55.6422 455.837 55.6077C456.317 55.57 456.678 55.6124 457.04 55.6793C457.422 55.7494 457.422 55.7478 457.718 55.9178C457.805 55.9668 458.052 55.9895 458.259 55.9799C458.607 55.9639 458.907 55.9711 459.162 56.029C459.43 56.0915 459.75 56.0833 460.078 56.0658C460.512 56.042 460.946 56.0213 461.301 56.1098C461.475 56.1525 461.662 56.1629 461.896 56.1518C462.557 56.123 463.225 56.1049 463.872 56.07C464.266 56.0478 464.494 56.0966 464.762 56.1376C465.123 56.1938 465.518 56.2438 465.519 56.3652C465.52 56.3851 465.613 56.408 465.694 56.4233C465.868 56.4552 466.055 56.4825 466.236 56.513C466.504 56.5586 466.765 56.5965 467.132 56.5713C467.452 56.5508 467.793 56.544 468.12 56.5297C468.447 56.5153 468.748 56.5071 469.043 56.5649C469.384 56.6304 469.746 56.6928 470.134 56.7412C470.408 56.7761 470.768 56.7156 471.063 56.7627C471.243 56.7916 471.417 56.825 471.611 56.8493C471.692 56.8599 471.819 56.852 471.925 56.8487C472.146 56.8422 472.373 56.8372 472.587 56.8215C472.834 56.8042 473.021 56.8069 473.208 56.8419C473.382 56.8739 473.556 56.9181 473.757 56.927C474.058 56.9403 474.391 56.8783 474.692 56.9484C474.847 56.9835 475.041 57.017 475.241 57.0274C475.442 57.0378 475.675 57.0143 475.889 57.0155C475.983 57.0153 476.096 57.0397 476.15 57.0596C476.184 57.0703 476.137 57.0995 476.091 57.115C476.031 57.1335 475.944 57.1583 475.857 57.1615C475.196 57.1903 474.535 57.2145 473.874 57.2417C473.48 57.2578 473.48 57.2578 472.684 57.1624C472.497 57.1397 472.29 57.1446 472.056 57.1558C471.742 57.1702 471.422 57.1968 471.094 57.1698C470.665 57.066 470.138 57.0577 469.577 57.0986C469.343 57.1159 469.129 57.1163 468.955 57.0874C468.587 57.0297 468.199 56.9766 467.871 56.908C467.616 56.8547 467.496 56.8503 467.39 56.9242C467.357 56.9473 467.324 56.972 467.331 56.9935C467.372 57.0702 467.446 57.1454 467.487 57.2221C467.501 57.2436 467.448 57.2683 467.415 57.2914C467.309 57.3561 467.168 57.3517 466.934 57.2983C466.699 57.245 466.418 57.2101 466.044 57.2354C465.724 57.2574 465.377 57.255 465.056 57.2786C464.562 57.3132 464.214 57.2647 463.859 57.1992C463.786 57.1855 463.659 57.1781 463.565 57.1813C462.57 57.2184 461.582 57.26 460.587 57.2971C460.373 57.3051 460.179 57.2824 460.012 57.2412C459.838 57.2001 459.644 57.1789 459.43 57.1869C458.548 57.2207 457.667 57.2515 456.786 57.2929C456.425 57.3105 456.138 57.291 455.89 57.2376C455.702 57.198 455.528 57.186 455.295 57.191C455.041 57.1961 454.861 57.2118 454.734 57.2566C454.615 57.2998 454.702 57.3257 454.969 57.3591C455.257 57.3954 455.525 57.4426 455.799 57.4852C456.02 57.4786 456.24 57.4659 456.454 57.4671C456.547 57.4669 456.634 57.4944 456.728 57.5096C456.996 57.5537 457.244 57.5979 457.624 57.5726C457.945 57.5506 458.285 57.5454 458.612 57.531C459.066 57.5133 459.066 57.5133 459.802 57.6088C459.99 57.633 460.19 57.6311 460.431 57.6169C460.637 57.6058 460.852 57.6269 460.999 57.6728C461.059 57.6911 461.04 57.7219 460.914 57.8235C460.915 57.8988 461.055 57.8647 461.101 57.8155C461.174 57.7447 461.033 57.7219 460.766 57.7607C460.58 57.7887 460.487 57.8288 460.534 57.861C460.561 57.8779 460.688 57.8992 460.914 57.8235C461.501 57.7303 461.948 57.7187 462.376 57.6934C462.629 57.6791 462.79 57.685 462.991 57.7246C463.232 57.7718 463.473 57.8221 463.867 57.7968C464.294 57.7684 464.748 57.7646 465.182 57.7408C465.583 57.7186 465.791 57.7858 466.045 57.8253C466.353 57.8724 466.693 57.818 466.974 57.8452C467.268 57.8724 467.476 57.9396 467.817 57.9513C468.311 57.9089 468.626 57.9852 469 58.0353C469.295 58.0732 469.642 58.0388 469.955 58.0213C470.309 58.0023 470.603 58.0187 470.851 58.0735C471.133 58.136 471.447 58.1217 471.767 58.1073C472.515 58.0753 472.541 58.0706 472.977 58.1543C473.291 58.2152 473.592 58.1871 473.906 58.1789C474.18 58.2199 474.448 58.2639 474.736 58.3003C474.809 58.3094 474.949 58.2938 475.063 58.289C475.39 58.2761 475.724 58.2633 476.051 58.2504C476.271 58.2423 476.505 58.2189 476.706 58.2278C476.906 58.2382 477.074 58.2824 477.254 58.3113C477.435 58.3402 477.623 58.369 477.797 58.3995C478.064 58.4451 478.319 58.4831 478.692 58.4594C479.013 58.4388 479.347 58.4321 479.681 58.4177C480.101 58.4001 480.088 58.4047 480.871 58.4955C481.292 58.5455 481.726 58.4833 482.153 58.4764C482.367 58.473 482.574 58.4895 482.722 58.5338C482.782 58.5521 482.763 58.5829 482.783 58.609C481.681 58.6524 480.573 58.6896 479.484 58.7422C479.064 58.7629 478.843 58.708 478.615 58.6623C478.24 58.5892 477.747 58.6976 477.392 58.603C477.177 58.5465 476.869 58.5148 476.502 58.5431C476.289 58.5588 476.061 58.5576 475.841 58.5719C475.28 58.6066 474.766 58.6091 474.317 58.5038C474.163 58.4672 473.942 58.4476 473.782 58.4126C473.594 58.3745 473.413 58.3533 473.193 58.3614C472.198 58.4 471.21 58.4386 470.222 58.4802C470.135 58.4834 470.048 58.5066 469.975 58.5237C469.788 58.567 469.849 58.6007 470.15 58.6278C470.25 58.6369 470.331 58.6567 470.424 58.6719C470.605 58.7008 470.773 58.7466 470.973 58.757C471.174 58.7674 471.407 58.7455 471.628 58.7374C471.848 58.7294 472.082 58.7059 472.282 58.7148C472.483 58.7252 472.65 58.7694 472.838 58.7968C472.925 58.8105 473.032 58.8333 473.119 58.8316C473.56 58.8216 473.994 58.804 474.434 58.7894C474.709 58.8304 474.943 58.8899 475.271 58.9032C475.478 58.912 475.698 58.8947 475.912 58.8974C476.006 58.8988 476.126 58.9216 476.173 58.9415C476.2 58.9538 476.113 58.9847 476.047 59.0001C475.794 59.059 475.446 59.0488 475.133 59.0678C474.792 59.0883 474.485 59.0827 474.223 59.0233C474.049 58.9836 473.855 58.9625 473.641 58.9705C473.087 58.9915 472.54 59.0155 471.985 59.0333C471.892 59.0366 471.778 59.0229 471.691 59.0123C470.989 58.9198 470.989 58.9168 470.494 58.9376C469.767 58.968 469.767 58.968 469.278 58.8874C469.184 58.8722 469.084 58.8432 469.003 58.8449C468.229 58.8708 467.461 58.8968 466.693 58.9334C466.439 58.9446 466.266 58.9449 466.078 58.9053C465.917 58.8718 465.73 58.8337 465.529 58.8248C465.322 58.816 465.095 58.8394 464.875 58.8475C464.655 58.8555 464.421 58.8759 464.227 58.864C464.027 58.852 463.852 58.8093 463.678 58.7789C463.497 58.7469 463.304 58.7488 463.057 58.7615C462.296 58.7982 462.289 58.7936 461.533 58.6996C461.446 58.689 461.332 58.6769 461.239 58.6802C460.684 58.6996 460.137 58.7236 459.583 58.743C459.369 58.751 459.161 58.7314 459.014 58.6871C458.954 58.6688 458.973 58.638 458.933 58.5782C458.886 58.5644 458.939 58.5889 458.953 58.612C459.053 58.6087 459.173 58.6116 459.247 58.5991C459.433 58.5696 459.526 58.5311 459.479 58.4989C459.452 58.482 459.325 58.4607 459.245 58.4609C459.098 58.4611 458.972 58.4951 458.933 58.5782C458.512 58.6296 458.065 58.6411 457.631 58.6665C457.377 58.6823 457.217 58.6749 457.016 58.6353C456.775 58.5865 456.527 58.5393 456.133 58.5646C455.706 58.593 455.252 58.5984 454.811 58.6207C454.304 58.6461 454.081 58.5082 453.654 58.5121C453.213 58.5159 452.772 58.5428 452.332 58.562C451.944 58.578 451.944 58.578 451.141 58.4796C450.847 58.4432 450.5 58.4976 450.213 58.4597C450.019 58.4354 449.851 58.3988 449.664 58.373C449.584 58.3624 449.457 58.3626 449.356 58.3659C448.802 58.3853 448.241 58.3986 447.707 58.4333C447.1 58.4743 446.638 58.4321 446.203 58.3422C445.655 58.36 445.101 58.3702 444.56 58.4003C444.166 58.4225 443.938 58.3722 443.671 58.3312C443.577 58.3176 443.497 58.2947 443.396 58.2887C443.296 58.2827 443.176 58.2952 443.069 58.3C442.628 58.3177 442.174 58.3261 441.747 58.3545C441.22 58.3908 441.018 58.2652 440.61 58.2505C440.337 58.3263 440.191 58.4294 439.65 58.4381C439.209 58.445 438.769 58.4703 438.328 58.488C438.108 58.496 437.887 58.5057 437.667 58.5137C437.313 58.5282 437.147 58.5884 437.221 58.6804C437.262 58.731 437.296 58.7817 437.33 58.8323C437.398 58.9228 437.232 59 436.951 59.0112C436.177 59.0417 435.409 59.0738 434.634 59.1012C434.427 59.1093 434.227 59.0835 434.059 59.0423C433.885 59.0011 433.691 58.9831 433.477 58.9911C432.703 59.0216 431.935 59.0537 431.16 59.0812C431.073 59.0844 430.96 59.0692 430.873 59.0571C430.685 59.0298 430.504 58.9978 430.324 58.9689C429.883 58.9835 429.449 58.9935 429.015 59.0127C428.314 59.0415 428.314 59.0431 427.798 58.9595C427.705 58.9443 427.611 58.9153 427.524 58.917C427.19 58.9237 426.863 58.9396 426.529 58.954C425.547 58.9957 425.547 58.9957 425.259 58.9501C424.998 58.9075 424.764 58.8557 424.37 58.8809C423.943 58.9093 423.489 58.9193 423.048 58.9355C422.721 58.9468 422.394 58.9597 422.066 58.9633C421.979 58.965 421.886 58.936 421.792 58.9208C421.524 58.8736 421.263 58.8356 420.896 58.8624C420.682 58.8781 420.455 58.8816 420.235 58.8897C419.661 58.9122 419.661 58.9122 418.718 58.8216C418.624 58.8126 418.51 58.802 418.417 58.8068C417.642 58.8358 416.874 58.8678 416.1 58.8953C416.006 58.8985 415.892 58.8895 415.799 58.882C414.742 58.7947 414.742 58.7947 413.62 58.8397C413.193 58.8558 413.18 58.862 412.731 58.7813C412.53 58.7463 412.363 58.7297 412.129 58.7409C411.248 58.7793 410.36 58.8054 409.485 58.85C409.091 58.8691 408.864 58.8234 408.596 58.7824C408.502 58.7687 408.402 58.7382 408.321 58.7398C407.44 58.7705 406.558 58.8074 405.677 58.8381C405.597 58.8413 405.496 58.8108 405.403 58.7971C405.222 58.7698 405.048 58.7286 404.847 58.7197C404.64 58.7109 404.413 58.7343 404.186 58.7424C403.632 58.7633 403.632 58.7618 402.989 58.6723C402.902 58.6601 402.789 58.6434 402.702 58.6466C401.82 58.6789 400.932 58.7066 400.058 58.7526C399.557 58.7781 399.215 58.7341 398.861 58.6702C398.787 58.6565 398.66 58.6506 398.567 58.6538C397.572 58.6909 396.583 58.7325 395.588 58.7696C395.381 58.7777 395.181 58.7519 395.013 58.7122C394.745 58.6497 394.431 58.6579 394.097 58.6723C393.33 58.7059 393.323 58.7044 392.868 58.6315C392.774 58.6163 392.694 58.5964 392.593 58.5889C392.5 58.5814 392.379 58.5862 392.279 58.5895C391.839 58.6056 391.398 58.6233 390.957 58.6409C390.516 58.6586 390.069 58.6686 389.635 58.6955C389.101 58.7287 388.846 58.6292 388.471 58.5838C387.923 58.6047 387.362 58.618 386.822 58.6512C386.408 58.6765 386.213 58.6092 385.939 58.5744C385.845 58.5622 385.745 58.5363 385.658 58.5395C384.663 58.575 383.668 58.6136 382.68 58.6568C382.439 58.6665 382.279 58.6545 382.078 58.6179C381.63 58.5357 381.609 58.5389 380.862 58.5709C380.534 58.5853 380.221 58.5981 379.939 58.5356C379.691 58.4792 379.391 58.4659 379.037 58.4849C378.603 58.5087 378.155 58.5218 377.715 58.5379C377.274 58.5556 376.833 58.5794 376.392 58.5879C376.039 58.5962 375.824 58.5243 375.543 58.488C375.456 58.4773 375.336 58.476 375.235 58.4793C374.795 58.4938 374.341 58.5054 373.913 58.5322C373.393 58.5654 373.104 58.4814 372.736 58.4329C372.656 58.4223 372.522 58.4287 372.422 58.4335C371.648 58.4624 370.88 58.4945 370.105 58.525C369.831 58.484 369.55 58.4446 369.275 58.4036C368.834 58.4197 368.394 58.4374 367.953 58.4535C367.619 58.4664 367.279 58.4716 366.965 58.4952C366.558 58.5266 366.356 58.4547 366.082 58.4199C365.988 58.4077 365.888 58.3818 365.801 58.385C365.247 58.4029 364.692 58.4223 364.145 58.4494C363.624 58.4764 363.415 58.3385 362.988 58.3407C362.547 58.343 362.093 58.3638 361.666 58.3922C361.172 58.4253 360.824 58.3768 360.469 58.3113C360.395 58.2976 360.268 58.2902 360.175 58.2934C359.621 58.3128 359.073 58.3368 358.519 58.3562C358.425 58.3594 358.312 58.3519 358.218 58.3429C357.161 58.2541 357.161 58.2526 356.701 58.2718C356.373 58.2846 356.04 58.3006 355.706 58.3088C355.612 58.3121 355.498 58.2985 355.411 58.2863C354.715 58.1938 354.715 58.1923 354.215 58.2116C353.774 58.2292 353.333 58.2469 352.892 58.2646C352.618 58.2236 352.337 58.1841 352.063 58.1431C351.515 58.164 350.954 58.1804 350.413 58.2089C350.159 58.2217 349.992 58.2174 349.798 58.1793C349.557 58.1336 349.316 58.0803 348.915 58.1071C348.488 58.1355 348.034 58.1393 347.6 58.1631C347.079 58.1917 346.864 58.0523 346.443 58.0545C346.002 58.0568 345.548 58.0776 345.121 58.106C344.627 58.1391 344.279 58.0906 343.924 58.0251C343.85 58.0114 343.723 58.004 343.63 58.0072C342.415 58.0539 341.206 58.1005 339.991 58.1502C339.243 58.1807 339.243 58.1823 337.819 58.1002C337.719 58.0943 337.611 58.0883 337.511 58.0916C337.071 58.1062 336.616 58.1177 336.189 58.1445C335.668 58.1777 335.38 58.0953 335.012 58.0452C334.932 58.0346 334.805 58.0409 334.698 58.0442C334.364 58.0555 334.037 58.0699 333.703 58.0828C333.263 58.1005 332.822 58.1181 332.381 58.1358C332.107 58.0963 331.826 58.0553 331.551 58.0159C331.004 58.0368 330.443 58.0485 329.902 58.0817C329.488 58.107 329.293 58.0428 329.019 58.0064C328.925 57.9943 328.825 57.9684 328.738 57.9701C327.743 58.0056 326.748 58.0427 325.76 58.0874C325.353 58.1065 325.165 58.0377 324.89 58.0028C324.797 57.9923 324.69 57.9725 324.603 57.9757C323.942 57.9984 323.281 58.0256 322.62 58.0529C322.246 58.0689 322.246 58.0689 321.43 57.9751C321.336 57.9645 321.229 57.9539 321.135 57.9571C319.039 58.0376 316.949 58.1227 314.852 58.2031C314.638 58.2112 314.444 58.1885 314.277 58.1473C314.102 58.1061 313.908 58.0849 313.695 58.093C312.813 58.1268 311.925 58.1575 311.05 58.199C310.69 58.2165 310.402 58.197 310.154 58.1437C309.967 58.104 309.793 58.089 309.559 58.0986C309.119 58.1178 308.678 58.1339 308.237 58.1516C307.797 58.1693 307.356 58.187 306.915 58.2046C306.474 58.2223 306.027 58.2323 305.593 58.2591C305.059 58.2923 304.797 58.1975 304.429 58.1506C303.768 58.1747 303.107 58.1989 302.453 58.2247C301.571 58.2584 300.69 58.2953 299.808 58.3276C299.728 58.3308 299.628 58.3033 299.534 58.2896C299.26 58.2517 299.058 58.1983 298.651 58.2159C296.675 58.3008 294.685 58.3733 292.702 58.4567C292.288 58.4743 292.106 58.4085 291.825 58.3737C291.732 58.3631 291.625 58.3418 291.538 58.345C290.436 58.3853 289.334 58.4303 288.233 58.4736C287.785 58.4913 287.785 58.4913 287.036 58.3974C286.949 58.3868 286.835 58.3731 286.741 58.3764C285.306 58.4311 283.877 58.4889 282.441 58.5452C282.227 58.5532 282.033 58.532 281.859 58.4909C281.692 58.4497 281.491 58.427 281.284 58.435C279.962 58.4865 278.633 58.5364 277.318 58.5925C276.964 58.6084 276.67 58.5951 276.415 58.5403C276.234 58.5006 276.054 58.484 275.827 58.4937C273.843 58.5724 271.86 58.648 269.877 58.7314C269.496 58.7474 269.229 58.7187 268.988 58.6684C268.794 58.6288 268.626 58.6214 268.386 58.628C268.132 58.6361 267.979 58.6532 267.839 58.6996C267.659 58.7598 267.547 58.8353 267.119 58.8406C266.678 58.846 266.231 58.8652 265.797 58.8921C265.383 58.9189 265.189 58.8501 264.928 58.8091C264.733 58.7802 264.553 58.776 264.306 58.7902C264.079 58.8029 263.939 58.8292 263.806 58.8786C263.513 58.9836 263.487 58.9837 263.125 58.9182C262.931 58.8832 262.757 58.8559 262.543 58.8624C261.662 58.8947 260.78 58.93 259.899 58.9669C259.391 58.9877 259.385 58.9908 259.003 58.9146C258.816 58.8766 258.635 58.8584 258.415 58.868C255.991 58.9644 253.567 59.0577 251.143 59.1587C250.769 59.1748 250.515 59.1429 250.247 59.0973C250.16 59.0821 250.073 59.0607 249.972 59.0548C249.872 59.0488 249.759 59.0551 249.652 59.0584C247.889 59.1275 246.119 59.1936 244.363 59.2704C243.963 59.288 243.748 59.2392 243.474 59.1997C243.38 59.1861 243.3 59.1647 243.199 59.1587C243.099 59.1543 242.979 59.1652 242.872 59.17C241.109 59.2392 239.34 59.3052 237.584 59.382C237.163 59.3997 236.982 59.3354 236.708 59.3021C236.614 59.29 236.513 59.2671 236.427 59.2703C235.872 59.2882 235.325 59.3122 234.771 59.3331C233.448 59.3861 232.126 59.4361 230.804 59.4906C230.297 59.5114 230.074 59.3751 229.647 59.382C229.093 59.3906 228.545 59.4223 227.991 59.4448C227.55 59.4624 227.109 59.4786 226.669 59.4978C226.235 59.5154 226.235 59.5154 225.151 59.4282C225.058 59.4207 224.944 59.4101 224.851 59.4133C223.308 59.4729 221.759 59.5324 220.223 59.5965C219.869 59.611 219.575 59.6038 219.321 59.5474C219.14 59.5078 218.953 59.4881 218.732 59.4977C216.415 59.5893 214.105 59.6809 211.787 59.771C211.701 59.7742 211.587 59.759 211.5 59.7469C211.313 59.7195 211.132 59.6876 210.951 59.6587C210.818 59.6943 210.645 59.7268 210.558 59.7669C210.439 59.8209 210.279 59.8366 210.025 59.8462C209.771 59.8559 209.611 59.8531 209.41 59.8135C209.169 59.7648 208.921 59.7268 208.527 59.7428C206.103 59.8438 203.679 59.9356 201.255 60.0351C200.855 60.0511 200.667 59.9838 200.386 59.949C200.292 59.9384 200.185 59.9217 200.098 59.9249C199.103 59.962 198.115 60.0021 197.12 60.0407C194.362 60.15 191.604 60.2546 188.853 60.37C188.353 60.3909 188.011 60.353 187.656 60.2876C187.583 60.2739 187.456 60.2664 187.362 60.2697C183.503 60.4208 179.643 60.5734 175.79 60.7261C175.583 60.7341 175.382 60.7099 175.215 60.6702C175.041 60.629 174.847 60.6094 174.633 60.6175C172.87 60.6866 171.107 60.7557 169.345 60.8264C168.904 60.8441 168.897 60.8456 168.442 60.7726C168.348 60.7574 168.248 60.7284 168.174 60.7316C168.021 60.7396 167.874 60.7782 167.768 60.8306C167.662 60.8861 167.495 60.9018 167.248 60.913C166.994 60.9242 166.827 60.9199 166.633 60.8833C166.385 60.8377 166.157 60.7935 165.757 60.8096C160.689 61.015 155.62 61.2128 150.552 61.4167C150.145 61.4328 149.957 61.3686 149.676 61.3337C149.582 61.3231 149.489 61.3079 149.388 61.305C149.281 61.3021 149.168 61.3116 149.061 61.3164C140.794 61.6426 132.528 61.9704 124.261 62.2966C123.767 62.3159 123.774 62.3159 123.234 62.4582C123.168 62.4752 123.081 62.4984 122.987 62.5016C120.457 62.6043 117.919 62.704 115.382 62.8036C114.28 62.847 113.178 62.892 112.077 62.9338C111.683 62.9483 111.683 62.9483 110.743 63.1159C110.663 63.1299 110.569 63.1485 110.476 63.1517C106.069 63.3268 101.661 63.5019 97.2475 63.674C96.9003 63.6869 96.6201 63.715 96.4607 63.789C96.3477 63.8415 96.2011 63.8724 95.9808 63.882C92.8958 64.0042 89.8109 64.1278 86.7192 64.2469C86.3519 64.2613 86.1319 64.3047 85.9523 64.3696C85.8924 64.3912 85.8392 64.4158 85.7526 64.4314C85.6726 64.4453 85.5524 64.4501 85.4523 64.4549C82.808 64.5594 80.1638 64.6669 77.5128 64.7668C77.1188 64.7813 76.9591 64.8384 76.7661 64.8987C76.6995 64.9187 76.6531 64.9465 76.5664 64.9605C76.4797 64.9729 76.3528 64.9731 76.2459 64.9764C74.0423 65.0632 71.8388 65.1515 69.6353 65.2383C69.2076 65.2313 69.1151 65.3206 68.9087 65.3747C68.8354 65.3933 68.7824 65.418 68.6957 65.4304C68.6023 65.4429 68.4819 65.4415 68.3683 65.4448C66.6055 65.5139 64.8427 65.5877 63.0731 65.6522C62.6658 65.6667 62.5865 65.7452 62.3667 65.7994C62.2934 65.8164 62.2204 65.8426 62.1336 65.8474C61.0318 65.8939 59.9301 65.9373 58.8283 65.9791C58.461 65.9936 58.461 65.9921 57.8148 66.1453C57.7415 66.1623 57.6548 66.1809 57.5613 66.1857C55.912 66.2531 54.256 66.3174 52.6 66.3832C52.3863 66.3913 52.2399 66.4284 52.1336 66.4808C52.0273 66.5333 51.8741 66.5673 51.6604 66.5754C50.3383 66.6284 49.0161 66.6829 47.6939 66.7313C47.3266 66.7442 47.0866 66.783 46.9271 66.8525C46.8075 66.9049 46.6609 66.9313 46.4272 66.9409C45.105 66.9923 43.7829 67.0484 42.454 67.0938C42.0667 67.1067 41.8668 67.1593 41.7073 67.2241C41.581 67.2765 41.4342 67.2952 41.1872 67.3049C38.7632 67.3982 36.3326 67.4915 33.9155 67.594C33.5082 67.6117 33.3004 67.5582 33.0327 67.5203C32.6512 67.4672 32.2965 67.4094 32.2951 67.2896C32.2949 67.2712 32.181 67.2499 32.1007 67.2346C31.5047 67.1204 31.5047 67.1204 31.4096 66.9977C31.3553 66.9225 31.2942 66.8458 31.2465 66.7691C31.1581 66.6433 30.9439 66.6114 30.3296 66.6355C30.1092 66.6435 29.8889 66.6547 29.6685 66.6612C29.3413 66.6725 29.0935 66.6222 29.0323 66.5302C28.9982 66.4795 28.9576 66.4289 28.9236 66.3783C29.2575 66.3654 29.2507 66.3639 29.8363 66.177C30.0825 66.0982 30.0826 66.0982 29.6074 66.0207C29.4266 65.9918 29.2525 65.9598 29.0584 65.9325C28.9714 65.9204 28.8578 65.9129 28.7643 65.9161C28.21 65.9355 27.6625 65.958 27.115 65.9804C26.2336 66.0158 26.2335 66.0157 25.3363 65.8606C25.2627 65.8484 25.1489 65.8256 25.1621 65.8133C25.2349 65.7563 25.4149 65.7314 25.642 65.7249C25.9759 65.7151 26.303 65.6991 26.6302 65.6863C26.8506 65.6782 27.0709 65.6686 27.2913 65.6606C27.4977 65.6018 27.7109 65.5446 27.9039 65.4844C28.2101 65.3917 28.2099 65.3886 27.7883 65.3248C27.5205 65.2822 27.2328 65.2443 26.9584 65.2048C26.6312 65.2177 26.2974 65.2321 25.9702 65.2434C25.5561 65.258 25.3887 65.2291 25.2806 65.1294C25.186 65.042 25.2987 64.9665 25.6191 64.9475C25.9463 64.9285 26.2536 64.9157 26.4196 64.8371C26.579 64.7615 26.8592 64.7318 27.2065 64.7251C27.4269 64.7201 27.6473 64.709 27.8676 64.6994C28.1547 64.6866 28.3075 64.608 28.2463 64.5205C28.2122 64.4637 28.1448 64.4162 27.8841 64.4044C26.7277 64.3526 26.7143 64.3541 26.1385 64.2507C26.0849 64.2415 26.0446 64.214 26.0645 64.2001C26.0976 64.177 26.1707 64.1431 26.2508 64.1383C27.0186 64.1032 27.7865 64.0711 28.5545 64.0468C28.8082 64.0386 28.9952 64.0275 29.0813 63.9706C29.2006 63.892 29.1463 63.8199 28.9118 63.7665C28.8382 63.7498 28.7175 63.7285 28.6374 63.7301C27.7559 63.7593 26.8812 63.7962 25.9997 63.8253C25.9196 63.8286 25.7724 63.8027 25.7387 63.7828C25.6715 63.746 25.771 63.6967 26.0046 63.6794C26.3116 63.6558 26.6256 63.6537 26.8318 63.5766C27.1177 63.467 27.4705 63.3665 27.7899 63.2615C27.8431 63.243 27.9297 63.2075 27.9096 63.2044C27.7422 63.1709 27.5481 63.1451 27.374 63.1132C27.0794 63.0599 27.0784 62.9846 27.1443 62.9123C27.1971 62.8539 27.3972 62.8305 27.6444 62.83C27.7513 62.8298 27.8849 62.8296 27.9716 62.8156C28.1983 62.7814 28.2713 62.7383 28.1573 62.7062C28.0903 62.6879 27.9698 62.662 27.8896 62.6652C26.4606 62.7184 25.0248 62.7701 23.6026 62.8355C23.1819 62.8547 22.9876 62.7966 22.7333 62.7556C22.5391 62.7237 22.3585 62.7117 22.1183 62.7351C21.8914 62.757 21.6709 62.7452 21.53 62.6947C21.4159 62.6534 21.6158 62.6177 22.1565 62.5769C22.2566 62.569 22.3701 62.5642 22.4434 62.5487C23.2163 62.3814 23.2162 62.3799 23.7504 62.3575C24.2713 62.3366 24.2714 62.335 24.5442 62.2455C24.6706 62.2038 24.8103 62.162 24.93 62.1188C24.9766 62.1018 25.0565 62.071 25.0296 62.0618C24.8821 62.0144 24.6815 62.004 24.4478 62.0152C23.927 62.0422 23.3122 62.0218 23.0401 62.1682C22.9339 62.2237 22.767 62.2393 22.5266 62.249C20.1094 62.3423 17.6921 62.4417 15.2681 62.532C14.8741 62.5465 14.6945 62.6036 14.5416 62.6669C14.4087 62.7194 14.2618 62.735 14.0081 62.7446C13.7543 62.7543 13.5539 62.7593 13.4063 62.7088C13.3191 62.6782 13.3921 62.6351 13.5919 62.5917C13.8785 62.5298 13.8241 62.4531 13.7296 62.381C13.6623 62.3335 13.4548 62.3001 13.2343 62.3035C12.9071 62.3102 12.5934 62.3277 12.3187 62.2667C12.158 62.2316 11.9572 62.2074 11.7765 62.177C11.4283 62.1146 11.0801 62.0507 10.5929 62.093C10.2587 62.0782 10.0242 62.0233 9.75648 61.9808C9.30802 61.9109 9.2678 61.9002 9.58755 61.8244C9.94728 61.7392 9.66529 61.6291 9.8647 61.5458C10.0774 61.4563 10.3705 61.3775 10.63 61.2941C10.6966 61.2724 10.7565 61.2524 10.823 61.2307C10.669 61.2003 10.5283 61.1621 10.3476 61.1409C10.1135 61.1137 9.99279 61.0801 10.005 60.9848C9.95806 60.9711 9.97839 61.0064 10.0319 61.0155C10.0922 61.0246 10.2392 61.0167 10.3125 61.0058C10.4992 60.9763 10.5922 60.9377 10.545 60.9055C10.5181 60.8887 10.391 60.8674 10.3108 60.8675C10.1639 60.8678 10.0374 60.9018 9.9983 60.9848C9.25085 61.0491 8.47615 61.0812 7.7015 61.1071C7.62138 61.1103 7.52085 61.0798 7.42714 61.0646C7.11919 61.0129 7.11917 61.0144 6.21711 61.0006C6.12356 60.9992 5.99644 60.9779 5.94941 60.9565C5.75453 60.8631 5.76001 60.7602 5.66527 60.6605C5.83818 60.5957 6.01097 60.5324 6.19058 60.4691C6.54978 60.3409 7.01616 60.228 7.29504 60.0877C7.234 60.0125 7.1529 59.9374 7.4461 59.8754C8.28023 59.7971 8.2736 59.7972 8.49985 59.723C9.14532 59.513 9.78405 59.3014 10.4563 59.0943C10.636 59.0402 10.6357 59.0111 10.3147 58.9886C10.2144 58.9826 10.1074 58.9813 10.0005 58.9845C9.66664 58.9958 9.33296 59.0241 9.00553 59.0185C8.67813 59.0145 8.43681 58.9473 8.16908 58.9063C7.89465 58.8637 7.62022 58.8196 7.34577 58.7756C7.03184 58.7807 6.71844 58.8243 6.40361 58.7557C6.16246 58.7023 5.86138 58.6645 5.58694 58.6204C5.79261 58.5033 6.17906 58.4135 6.47843 58.31C6.75119 58.2158 6.75774 58.2174 7.49173 58.1439C7.83871 58.1095 7.95685 57.9357 7.66229 57.8855C7.30747 57.8246 6.93274 57.7684 6.57128 57.7107C6.25735 57.7158 5.93725 57.7579 5.63579 57.6893C5.40133 57.6375 5.13363 57.6026 4.7464 57.6232C4.09211 57.6582 3.42428 57.6762 2.76324 57.705C2.53622 57.7146 2.28889 57.7089 2.18804 57.6569C2.12079 57.6201 2.31392 57.5691 2.53425 57.5579C2.86809 57.542 3.16846 57.523 3.33454 57.4459C3.49394 57.3688 3.78757 57.3453 4.13483 57.3339C4.22832 57.3307 4.33506 57.3121 4.3816 57.2935C4.62102 57.204 4.88732 57.1267 5.40176 57.1289C5.61517 57.0978 5.7282 57.0592 5.66094 57.0225C5.62062 57.0026 5.48008 56.9767 5.39995 56.9799C4.84565 56.9962 4.29137 57.0126 3.75058 57.0412C3.49687 57.0539 3.30306 57.0573 3.14217 57.0115C3.02823 56.9809 3.08784 56.9394 3.30108 56.8944C3.48766 56.8557 3.54062 56.8111 3.52663 56.7588C3.49175 56.6375 3.29086 56.6026 2.64962 56.6114C2.18874 56.6183 2.07492 56.5985 1.97344 56.4942C1.94642 56.4697 1.87932 56.436 1.92587 56.419C2.21187 56.3141 2.39736 56.1847 2.93789 56.1346C3.15145 56.1158 3.37849 56.1154 3.51162 56.0752C3.64474 56.035 3.76449 55.9887 3.90432 55.9501C4.07745 55.9037 4.19706 55.8605 4.11654 55.8314C3.98229 55.7794 3.76853 55.7752 3.52157 55.7941C3.30798 55.8098 3.08086 55.8117 2.86052 55.8213C2.46657 55.8389 2.14549 55.7995 2.0979 55.732C1.9688 55.554 1.833 55.3776 1.71726 55.1996C1.70364 55.1781 1.73661 55.1503 1.78983 55.1318C1.9761 55.067 2.17585 55.0052 2.36882 54.9418C2.59508 54.8692 2.95606 54.8825 3.2632 54.8681C3.69719 54.8474 3.69706 54.8489 4.27647 54.7004C4.5029 54.6416 4.89735 54.664 5.13054 54.6113C5.20382 54.5943 5.31705 54.5665 5.29682 54.5511C5.26986 54.5312 5.13613 54.5161 5.03581 54.507C4.94217 54.498 4.82857 54.4936 4.72842 54.4984C3.5131 54.545 2.30453 54.5947 1.08919 54.6399C0.882185 54.6479 0.654628 54.6145 0.580562 54.567C0.506533 54.5226 0.525855 54.4688 0.511877 54.4181C0.704846 54.3548 0.92451 54.296 1.0907 54.2281C1.217 54.1757 1.36371 54.1524 1.61754 54.1489C1.95151 54.1437 2.27867 54.1247 2.65261 54.1102C3.34466 53.8847 4.02317 53.6485 4.76866 53.4229C5.06818 53.3317 4.99369 53.2396 5.05264 53.1427C5.11168 53.0535 5.55942 53.0666 5.85973 53.04C6.09997 53.018 6.17943 52.9687 6.08549 52.9351C6.0318 52.9152 5.91134 52.8924 5.81781 52.8925C5.59735 52.8929 5.37707 52.9071 5.1567 52.9152C4.93634 52.9233 4.68243 52.9191 4.50237 52.9455C4.32898 52.9704 4.21598 53.0228 4.10295 53.0676C3.97662 53.117 3.80993 53.1342 3.55611 53.1377C3.22879 53.1413 2.90163 53.1557 2.57442 53.167C2.21294 53.1077 1.83804 53.05 1.48988 52.9876C1.42293 52.9755 1.40906 52.9401 1.41546 52.9171C1.4281 52.8572 1.32746 52.8204 1.10665 52.7916C0.919295 52.7674 0.765199 52.7323 0.59113 52.7019C0.724236 52.6602 0.870775 52.62 0.977121 52.5752C1.2098 52.4811 1.50295 52.413 2.01072 52.4152C2.2104 52.3549 2.36979 52.2809 2.62983 52.239C2.87652 52.1986 3.29791 52.2378 3.48386 52.1469C3.57684 52.1021 3.7166 52.0512 3.89675 52.0324C4.18366 52.0028 4.55795 52.0175 4.72392 51.9312C4.82353 51.8818 4.9699 51.837 5.16348 51.8244C5.38377 51.8102 5.61082 51.8067 5.7708 51.7773C5.85746 51.7617 5.9507 51.737 5.95044 51.7155C5.95027 51.7017 5.8165 51.6804 5.72286 51.6713C5.63588 51.6607 5.52209 51.6532 5.42192 51.6565C5.088 51.6663 4.76086 51.6837 4.42695 51.6935C4.33346 51.6968 4.22647 51.6862 4.12615 51.6772C3.83191 51.6531 3.85153 51.6223 4.08468 51.5666C4.31785 51.5124 4.48411 51.443 4.67708 51.3797C4.89073 51.3686 5.15797 51.3727 5.30458 51.3433C5.55118 51.2952 5.72399 51.2258 5.92368 51.1655C6.14403 51.1559 6.37111 51.1525 6.57801 51.1352C6.66478 51.1289 6.70448 51.095 6.77773 51.0749C6.91087 51.0363 7.02386 50.9808 7.20401 50.962C7.49762 50.9339 7.85849 50.944 8.03116 50.8592C8.13077 50.8099 8.28373 50.7574 8.47074 50.754C8.99175 50.7469 9.21119 50.662 9.47744 50.5817C9.67713 50.5214 10.1051 50.5514 10.3248 50.4911C10.4713 50.4524 10.5777 50.4046 10.7242 50.3675C10.7841 50.352 10.9109 50.3441 11.0111 50.3394C11.5586 50.3154 12.1129 50.2975 12.6604 50.272C12.7472 50.2672 12.8271 50.244 12.8937 50.2255C13.0335 50.1853 13.1196 50.1298 13.293 50.1034C13.4663 50.077 13.7135 50.0766 13.9272 50.0685C14.615 50.0443 14.6686 50.0503 14.981 49.9192C15.2335 49.8127 15.8558 49.8869 16.0615 49.7698C16.1809 49.702 16.4006 49.6463 16.7947 49.638C17.349 49.6262 17.8965 49.5961 18.4507 49.5752C18.9448 49.5559 18.9382 49.5559 19.4709 49.4121C19.7106 49.3471 20.0649 49.3557 20.3787 49.3429C20.7126 49.33 21.0196 49.3111 21.179 49.234C21.3384 49.1584 21.632 49.1333 21.9726 49.122C22.2865 49.1107 22.6407 49.1178 22.8872 49.0559C23.4866 48.9073 23.4799 48.9058 23.9006 48.8897C24.5617 48.864 25.2227 48.8383 25.8838 48.811C26.3245 48.7933 26.7854 48.7895 27.1992 48.7549C27.4995 48.7298 27.632 48.6436 27.8251 48.5833C28.3726 48.5593 28.9201 48.5353 29.4676 48.5129C30.2355 48.4808 31.0101 48.4518 31.7847 48.4213C32.118 48.3623 32.1633 48.2332 32.7244 48.2261C33.0584 48.2224 33.3855 48.2019 33.7194 48.189C34.2736 48.1665 34.8211 48.1379 35.3754 48.1262C35.7962 48.1178 35.8685 48.0347 36.0884 47.9821C36.1616 47.9635 36.2282 47.9373 36.315 47.9325C37.1829 47.888 38.0779 47.8772 38.9256 47.8128C39.0124 47.8065 39.0922 47.7741 39.1119 47.751C39.1252 47.7387 39.0113 47.7158 38.9377 47.7052C38.8507 47.6931 38.737 47.681 38.6435 47.6842C35.8857 47.7919 33.128 47.9012 30.3701 48.0089C29.9829 48.025 29.9828 48.0234 29.0429 48.194C28.9629 48.208 28.8695 48.2235 28.7693 48.2283C28.3286 48.2475 27.8812 48.2591 27.4472 48.2829C27.0934 48.3019 26.7993 48.284 26.5448 48.2291C26.3639 48.1895 26.1766 48.1775 25.9495 48.181C25.6957 48.186 25.529 48.2032 25.3825 48.245C25.1895 48.3021 25.0902 48.376 24.6828 48.3921C22.8064 48.4614 20.9299 48.5384 19.0602 48.6124C18.7994 48.5913 18.6721 48.5593 18.7385 48.5207C18.7783 48.4976 18.8581 48.4668 18.9382 48.4636C19.7061 48.43 20.4807 48.401 21.2486 48.3689C21.3554 48.3641 21.5024 48.3669 21.5623 48.3514C21.8554 48.2818 21.9611 48.1695 22.5155 48.1608C22.8361 48.1557 23.1631 48.1321 23.4701 48.11C23.5569 48.1037 23.6367 48.0713 23.6565 48.0482C23.663 48.0359 23.5558 48.0131 23.4755 48.0024C23.181 47.9584 22.8411 48.0128 22.5467 47.9826C22.4464 47.972 22.3058 47.9569 22.2856 47.9385C22.272 47.9216 22.3852 47.8937 22.4652 47.8767C22.5385 47.8612 22.6385 47.8472 22.7386 47.8424C23.62 47.8056 24.5016 47.7671 25.3831 47.738C25.7437 47.7266 25.997 47.6877 26.1565 47.6168C26.2761 47.5643 26.4227 47.5364 26.6498 47.5284C28.1923 47.4688 29.7347 47.4032 31.284 47.3482C31.6713 47.3353 31.8712 47.2842 32.0307 47.2179C32.157 47.1654 32.3037 47.1468 32.5508 47.1371C34.7611 47.0534 36.9579 46.9605 39.1682 46.8798C39.5756 46.8653 39.6951 46.799 39.9015 46.7418C39.9747 46.7217 40.0211 46.697 40.1144 46.6846C40.2078 46.6721 40.3281 46.6734 40.4416 46.6702C42.2045 46.6011 43.9674 46.5273 45.737 46.4628C46.151 46.4483 46.2301 46.3713 46.4433 46.3172C46.5165 46.3001 46.5831 46.2724 46.6699 46.2676C47.992 46.2131 49.3141 46.1616 50.6362 46.1086C51.5176 46.0733 52.399 46.038 53.2805 46.0042C53.7145 45.988 53.7145 45.9865 54.3007 45.8395C54.3673 45.8225 54.4606 45.8024 54.5474 45.7976C57.0848 45.6949 59.6155 45.5968 62.153 45.4956C62.3667 45.4875 62.5199 45.4519 62.6261 45.3995C62.7324 45.3471 62.8857 45.3115 63.0927 45.3034C65.0759 45.2232 67.0591 45.1445 69.049 45.0688C69.4096 45.0559 69.663 45.0186 69.8225 44.9492C69.9421 44.8967 70.0887 44.8688 70.3157 44.8607C72.299 44.7836 74.2823 44.7017 76.2722 44.6276C76.6528 44.6131 76.8392 44.5606 77.0255 44.4988C77.092 44.4772 77.1451 44.4417 77.2252 44.4385C78.2134 44.3938 79.1949 44.3475 80.1899 44.3166C80.604 44.3036 80.7435 44.2388 80.9098 44.1771C81.0428 44.1277 81.1963 44.1105 81.4501 44.104C82.0044 44.0892 82.5518 44.0621 83.0927 44.0351C83.1728 44.0303 83.2726 43.9963 83.279 43.9748C83.2919 43.9348 83.1378 43.9075 82.8838 43.8941C80.2395 43.9985 77.5886 44.103 74.9443 44.2074C74.5103 44.2251 74.5103 44.2251 73.9242 44.3721C73.8576 44.3891 73.7642 44.4092 73.6707 44.414C71.1333 44.5152 68.6026 44.6148 66.0651 44.716C65.8515 44.7241 65.6983 44.7597 65.592 44.8121C65.4858 44.8645 65.3324 44.9001 65.1254 44.9082C62.7015 45.0046 60.2776 45.1025 57.847 45.1943C57.4864 45.2072 57.233 45.243 57.0735 45.3139C56.9539 45.3663 56.8073 45.3943 56.5802 45.4023C54.2631 45.4924 51.9527 45.587 49.6288 45.674C49.3951 45.6821 49.221 45.6379 49.2338 45.5964C49.2402 45.5749 49.3399 45.5394 49.42 45.5361C50.6286 45.4834 51.8306 45.429 53.046 45.3885C53.4533 45.3755 53.5726 45.3077 53.7791 45.2505C53.8456 45.2304 53.8988 45.2042 53.9855 45.1933C54.0789 45.1808 54.1991 45.1822 54.3127 45.1789C57.1773 45.0648 60.042 44.9493 62.9134 44.8413C63.3274 44.8253 63.4065 44.7498 63.6197 44.6957C63.6929 44.6771 63.7594 44.6494 63.8463 44.6461C64.7276 44.6077 65.6091 44.5739 66.4905 44.5401C68.033 44.4791 69.5755 44.418 71.1246 44.357C71.572 44.3393 71.5721 44.3393 72.1448 44.1939C72.2114 44.1768 72.3048 44.1552 72.3916 44.152C76.4715 43.9897 80.5515 43.8275 84.6315 43.6667C84.8451 43.6587 84.9983 43.6231 85.1046 43.5707C85.2109 43.5198 85.364 43.4826 85.571 43.4731C91.0866 43.2545 96.5956 43.036 102.111 42.8206C102.472 42.8061 102.725 42.7734 102.885 42.7009C102.998 42.6485 103.151 42.6206 103.378 42.611C109.441 42.3715 115.504 42.1321 121.574 41.8911C125.654 41.7304 129.734 41.5666 133.814 41.4089C134.188 41.3945 134.388 41.3465 134.574 41.2832C134.634 41.2616 134.694 41.2261 134.774 41.2229C135.648 41.183 136.523 41.1461 137.398 41.1093C137.672 41.1503 137.947 41.1898 138.221 41.2308C138.427 41.172 138.627 41.1118 138.834 41.053C140.156 41.0062 141.458 40.9348 142.793 40.9109C142.88 40.9093 142.974 40.9383 143.068 40.9535C143.69 41.0492 144.044 41.0409 144.437 40.9112C144.577 40.8648 144.696 40.8231 144.91 40.8151C145.571 40.7863 146.239 40.7667 146.893 40.7333C147.247 40.7158 147.541 40.7306 147.796 40.7855C147.977 40.8251 148.164 40.8417 148.384 40.8321C149.6 40.7839 150.808 40.7372 152.023 40.686C152.11 40.6827 152.19 40.6565 152.257 40.6379C152.396 40.5977 152.516 40.5545 152.649 40.5128C152.83 40.5386 153.031 40.5582 153.178 40.5918C153.366 40.6314 153.539 40.6311 153.793 40.6199C158.641 40.4256 163.495 40.2359 168.343 40.04C168.757 40.0239 168.938 40.0882 169.219 40.1215C169.313 40.1336 169.407 40.1488 169.507 40.1517C169.614 40.1546 169.727 40.1452 169.834 40.1404C173.473 39.9958 177.113 39.8527 180.752 39.7081C181.233 39.6889 181.233 39.6889 181.949 39.7829C182.036 39.795 182.149 39.8086 182.243 39.8039C183.899 39.7411 185.555 39.6737 187.204 39.6094C187.418 39.6013 187.599 39.6256 187.793 39.6606C188.175 39.729 188.201 39.729 188.48 39.6271C188.613 39.5793 188.753 39.5498 188.974 39.5356C189.214 39.5198 189.408 39.5241 189.595 39.5514C189.863 39.5894 190.058 39.6536 190.465 39.636C192.228 39.5607 193.997 39.4977 195.753 39.4209C196.154 39.4033 196.368 39.4552 196.636 39.4931C196.73 39.5068 196.817 39.5281 196.917 39.5326C197.017 39.537 197.138 39.526 197.244 39.5212C199.448 39.4344 201.658 39.3492 203.855 39.2563C204.269 39.2387 204.45 39.3044 204.731 39.3377C204.825 39.3498 204.932 39.3712 205.019 39.3679C206.341 39.318 207.67 39.265 208.992 39.212C209.466 39.1927 209.466 39.1943 210.189 39.2867C210.276 39.2989 210.389 39.311 210.483 39.3077C212.025 39.2482 213.575 39.1871 215.117 39.1261C215.591 39.1068 215.591 39.1068 216.962 39.1843C217.062 39.1903 217.169 39.1994 217.269 39.1961C219.032 39.127 220.802 39.0594 222.564 38.9856C222.918 38.9712 223.212 38.983 223.467 39.0378C223.648 39.0775 223.835 39.0941 224.055 39.0845C226.039 39.0057 228.029 38.9301 230.005 38.8468C230.386 38.8307 230.633 38.8641 230.901 38.9082C230.988 38.9234 231.075 38.9447 231.175 38.9507C231.276 38.9567 231.389 38.9503 231.496 38.9455C233.479 38.8668 235.469 38.7927 237.446 38.7078C237.846 38.6902 238.061 38.7421 238.328 38.7801C238.422 38.7937 238.523 38.8212 238.603 38.8195C239.377 38.7921 240.152 38.7677 240.92 38.7279C241.334 38.7057 241.515 38.776 241.796 38.8094C241.89 38.82 241.997 38.8428 242.084 38.8396C243.74 38.7768 245.396 38.7109 247.045 38.6436C247.279 38.6339 247.453 38.6474 247.64 38.6871C247.888 38.7404 248.176 38.7614 248.536 38.7439C249.304 38.7072 250.079 38.6813 250.853 38.6508C251.307 38.6331 251.307 38.6331 252.698 38.7106C252.798 38.7165 252.905 38.7256 253.005 38.7223C254.327 38.6708 255.656 38.6209 256.972 38.5649C257.325 38.5489 257.62 38.5622 257.874 38.6171C258.055 38.6567 258.235 38.6733 258.463 38.6637C259.678 38.6155 260.887 38.5673 262.102 38.5191C262.543 38.5014 262.983 38.4715 263.424 38.4707C263.745 38.4717 263.979 38.545 264.267 38.5814C264.347 38.592 264.481 38.5795 264.588 38.5762C266.13 38.5152 267.679 38.4587 269.215 38.39C269.616 38.3724 269.83 38.4242 270.098 38.4622C270.192 38.4758 270.292 38.5033 270.372 38.5016C270.927 38.4838 271.474 38.4598 272.028 38.4388C272.689 38.4131 273.357 38.3935 274.012 38.3586C274.546 38.33 274.748 38.4633 275.175 38.4672C275.503 38.4712 275.836 38.4445 276.164 38.4317C276.825 38.4059 277.486 38.3771 278.147 38.3545C278.38 38.3464 278.561 38.3215 278.634 38.2661C278.647 38.2553 278.533 38.2324 278.459 38.2187C277.569 38.0636 277.569 38.0636 276.674 38.0989C276.12 38.1214 275.572 38.1439 275.018 38.1633C274.924 38.1665 274.817 38.1544 274.724 38.1453C274.456 38.1197 274.483 38.0889 274.709 38.0332C274.936 37.9775 275.108 37.9096 275.301 37.8463C275.576 37.8858 275.844 37.9252 276.118 37.9647C276.338 37.9566 276.559 37.947 276.779 37.939C277.881 37.8971 278.983 37.8537 280.084 37.8149C280.165 37.8117 280.265 37.8423 280.359 37.8575C280.627 37.9016 280.868 37.9395 281.255 37.922C282.243 37.8757 283.238 37.8417 284.226 37.8016C284.66 37.7839 284.66 37.7839 285.423 37.8779C285.51 37.8885 285.624 37.9006 285.717 37.8973C286.712 37.8603 287.7 37.8201 288.695 37.7815C288.909 37.7735 289.116 37.7931 289.271 37.8374C289.331 37.8557 289.318 37.8865 289.575 38.138C290.366 38.3409 290.907 38.3185 291.454 38.2991C291.688 38.291 291.895 38.283 292.048 38.252C292.128 38.2349 292.228 38.2102 292.228 38.1902C292.228 38.1748 292.08 38.1505 291.987 38.1476C291.325 38.118 290.698 38.1837 290.05 38.1986C289.749 38.2053 289.488 38.152 289.434 38.0645C289.42 38.0399 289.4 38.0138 289.379 37.9893C289.359 37.9647 289.345 37.9387 289.325 37.9141C289.064 37.9069 288.911 37.9348 288.798 37.9872C288.705 38.0304 288.572 38.0798 288.392 38.1032C288.212 38.1281 287.965 38.1239 287.744 38.1319C287.531 38.14 287.297 38.1604 287.097 38.15C286.896 38.138 286.735 38.0937 286.548 38.0664C286.461 38.0527 286.354 38.033 286.267 38.0362C285.499 38.0636 284.738 38.0911 283.976 38.1262C283.576 38.1453 283.375 38.0812 283.12 38.0416C282.919 38.0113 282.719 38.0193 282.686 38.09C282.602 38.2592 282.91 38.3293 283.591 38.2958C284.152 38.2672 284.659 38.2617 285.102 38.3654C285.162 38.3792 285.302 38.3851 285.389 38.3818C285.937 38.3625 286.477 38.3385 287.025 38.3191C287.125 38.3158 287.232 38.3218 287.326 38.3278C288.69 38.4084 288.69 38.4099 289.15 38.3907C289.371 38.3811 289.584 38.373 289.562 38.1395C289.979 37.8884 290.647 37.8703 291.295 37.8323C291.715 37.8086 291.897 37.8758 292.171 37.9107C292.265 37.9228 292.365 37.9472 292.452 37.944C293.888 37.8908 295.317 37.8346 296.746 37.7752C296.986 37.7656 297.16 37.7745 297.347 37.8141C297.588 37.8644 297.856 37.8962 298.237 37.8771C298.998 37.8389 299.772 37.8145 300.547 37.7825C300.941 37.7664 300.941 37.7664 301.737 37.8603C301.824 37.8709 301.938 37.883 302.031 37.8797C302.806 37.8523 303.574 37.8187 304.342 37.7897C304.555 37.7817 304.749 37.8028 304.917 37.844C305.084 37.8852 305.285 37.9064 305.492 37.8983C306.267 37.8693 307.035 37.8373 307.803 37.8083C307.896 37.805 308.01 37.8156 308.097 37.8262C308.913 37.92 308.913 37.92 309.287 37.904C309.834 37.88 310.395 37.8683 310.936 37.8366C311.463 37.805 311.738 37.8936 312.1 37.9421C313.088 37.9051 314.083 37.8742 315.065 37.8295C315.465 37.8103 315.68 37.8607 315.947 37.9001C316.041 37.9138 316.135 37.9428 316.222 37.9411C316.556 37.9344 316.883 37.917 317.21 37.9041C317.537 37.8912 317.871 37.8784 318.198 37.8655C318.573 37.9094 318.822 38.0134 319.356 37.9772C319.676 37.9551 320.017 37.9499 320.344 37.9371C320.671 37.9242 321.005 37.9113 321.332 37.8985C321.552 37.8904 321.78 37.8854 321.993 37.8712C322.387 37.8475 322.582 37.9224 322.863 37.9557C322.956 37.9663 323.063 37.9846 323.15 37.9813C323.811 37.9587 324.479 37.9391 325.127 37.9026C325.627 37.8741 325.969 37.9196 326.324 37.9835C326.397 37.9972 326.524 38.0047 326.618 38.0014C327.392 37.974 328.16 37.9404 328.928 37.9114C329.135 37.9033 329.336 37.9276 329.503 37.9672C329.678 38.0084 329.872 38.0281 330.085 38.02C330.853 37.991 331.628 37.9589 332.396 37.9299C332.489 37.9267 332.603 37.9388 332.69 37.9509C333.439 38.0449 333.439 38.0464 333.88 38.0272C333.987 38.0224 334.1 38.0192 334.207 38.0144C334.755 37.9919 335.323 37.9832 335.857 37.9454C336.471 37.9029 336.919 37.9544 337.354 38.0412C337.902 38.0218 338.463 38.0101 338.997 37.9784C339.397 37.9547 339.612 38.0127 339.88 38.0506C339.973 38.0643 340.074 38.0918 340.154 38.0885C340.929 38.0611 341.703 38.0367 342.464 37.997C342.878 37.9747 343.059 38.0435 343.34 38.0784C343.434 38.0905 343.535 38.1119 343.621 38.1086C344.062 38.0956 344.503 38.0764 344.944 38.0587C345.458 38.0378 345.458 38.0394 346.14 38.1319C346.462 38.1759 346.782 38.14 347.096 38.1287C347.43 38.1158 347.743 38.1061 348.011 38.1686C348.179 38.2083 348.38 38.2325 348.587 38.226C349.027 38.2114 349.475 38.1968 349.909 38.173C350.256 38.154 350.557 38.1657 350.811 38.2221C350.992 38.2618 351.179 38.2814 351.4 38.2718C352.388 38.2332 353.383 38.1931 354.371 38.156C354.458 38.1528 354.578 38.1664 354.659 38.1801C354.846 38.2074 355.027 38.2379 355.208 38.2683C355.642 38.2537 356.089 38.2468 356.517 38.2245C356.971 38.2022 357.385 38.1938 357.74 38.2777C357.814 38.296 357.921 38.3219 358.008 38.3202C358.341 38.3135 358.669 38.2976 358.996 38.2847C359.323 38.2719 359.657 38.259 359.984 38.2461C360.365 38.2839 360.607 38.3941 361.141 38.3578C361.462 38.3358 361.802 38.3306 362.13 38.3177C362.457 38.3048 362.791 38.2904 363.118 38.2791C363.225 38.2759 363.345 38.268 363.438 38.2739C363.539 38.2799 363.626 38.3013 363.713 38.3165C363.981 38.3606 364.228 38.4047 364.609 38.3779C364.929 38.3559 365.27 38.3507 365.597 38.3363C366.044 38.3186 366.044 38.3186 366.787 38.4141C367.088 38.4535 367.428 38.4007 367.716 38.434C367.91 38.4567 368.078 38.4948 368.265 38.5206C368.345 38.5312 368.472 38.5356 368.566 38.5324C369.006 38.5178 369.454 38.5032 369.888 38.4794C370.242 38.4603 370.536 38.4782 370.784 38.5331C370.965 38.5727 371.145 38.5893 371.372 38.5797C372.474 38.5348 373.576 38.496 374.671 38.4465C375.045 38.4289 375.346 38.4545 375.553 38.5095C375.909 38.6041 376.408 38.4911 376.777 38.5673C377.004 38.6145 377.232 38.6694 377.646 38.6457C378.407 38.6044 379.182 38.5815 379.95 38.5525C380.224 38.5935 380.499 38.6346 380.78 38.6755C381.22 38.6579 381.661 38.6402 382.102 38.6241C382.429 38.6112 382.763 38.5968 383.09 38.5855C383.197 38.5822 383.31 38.5759 383.411 38.5834C383.511 38.5909 383.592 38.6107 383.685 38.6259C384.147 38.7004 384.147 38.702 384.908 38.6699C385.236 38.6555 385.549 38.6458 385.824 38.7067C386.079 38.7631 386.379 38.7734 386.727 38.7559C387.381 38.724 388.042 38.6998 388.71 38.6771C388.917 38.6691 389.111 38.6949 389.285 38.7345C389.546 38.797 389.867 38.7903 390.194 38.7729C390.628 38.7506 391.055 38.7284 391.424 38.8138C391.497 38.8321 391.611 38.858 391.692 38.8563C392.239 38.8431 392.794 38.8329 393.328 38.8028C393.862 38.7727 394.123 38.8674 394.491 38.9129C395.039 38.892 395.593 38.871 396.141 38.8501C396.248 38.8453 396.374 38.8313 396.468 38.8388C396.863 38.8704 397.091 38.9852 397.632 38.9489C397.946 38.9284 398.286 38.9217 398.613 38.9165C398.7 38.9148 398.814 38.9407 398.875 38.9606C398.908 38.9713 398.875 39.0005 398.835 39.016C398.715 39.0592 398.569 39.0994 398.463 39.1441C398.449 39.1503 398.577 39.1777 398.65 39.1899C398.831 39.2172 399.038 39.2123 399.278 39.1996C399.485 39.1885 399.699 39.2096 399.847 39.2554C399.907 39.2738 399.888 39.3045 399.762 39.4061C399.763 39.4814 399.903 39.4474 399.949 39.3981C400.021 39.3273 399.881 39.3045 399.614 39.3434C399.427 39.3714 399.334 39.4115 399.382 39.4437C399.408 39.4605 399.536 39.4818 399.762 39.4061C400.349 39.3129 400.789 39.2953 401.23 39.2776C401.344 39.2728 401.477 39.2572 401.557 39.2663C401.845 39.3026 402.113 39.3467 402.394 39.3877C402.714 39.378 403.015 39.3544 403.329 39.4138C403.771 39.4975 403.791 39.4898 404.219 39.4721C404.439 39.4625 404.659 39.4545 404.88 39.4464C405.1 39.4384 405.274 39.4611 405.468 39.4961C405.863 39.5676 405.897 39.5675 406.156 39.4688C406.309 39.4086 406.416 39.3884 406.61 39.4157C407.252 39.5083 407.259 39.5145 407.806 39.4859C408.26 39.462 408.688 39.4552 409.023 39.5421C409.251 39.6032 409.324 39.5892 409.504 39.5244C409.983 39.353 410.203 39.3557 411.106 39.4771C411.528 39.5347 411.962 39.471 412.389 39.4626C412.75 39.4558 413.004 39.4922 413.032 39.5889C413.053 39.6488 413.113 39.6917 413.354 39.7113C413.448 39.7188 413.561 39.7294 413.655 39.7261C414.209 39.7067 414.757 39.6843 415.311 39.6618C415.591 39.6506 415.744 39.5781 415.69 39.4829C415.628 39.3817 415.735 39.3446 416.135 39.3147C416.375 39.2974 416.569 39.3001 416.763 39.3274C416.978 39.3578 416.918 39.3856 416.731 39.4412C416.285 39.5772 416.34 39.66 416.915 39.7527C417.116 39.7846 417.277 39.8136 417.324 39.8611C417.351 39.8856 417.325 39.918 417.385 39.9363C417.714 40.0387 418.169 40.1039 418.677 40.1522C419.164 40.1099 419.499 40.1784 419.874 40.2331C420.169 40.2756 420.516 40.2381 420.829 40.2222C421.183 40.2047 421.477 40.2165 421.732 40.2729C421.913 40.3125 422.1 40.3306 422.32 40.3225C422.761 40.3049 423.209 40.2934 423.642 40.268C424.016 40.2459 424.297 40.2761 424.532 40.3279C424.826 40.3935 425.153 40.3484 425.461 40.357C425.875 40.3671 426.084 40.5034 426.625 40.4656C426.945 40.4436 427.279 40.4353 427.613 40.4286C427.7 40.4269 427.807 40.4528 427.881 40.4711C428.236 40.555 428.65 40.5497 429.104 40.5243C429.418 40.5069 429.725 40.491 430.033 40.5488C430.542 40.6463 431.104 40.7313 431.639 40.821C431.714 40.8916 431.661 40.9746 432.043 41.0154C432.243 41.0366 432.431 41.0686 432.585 41.1036C432.772 41.1448 432.946 41.1552 433.186 41.1441C433.62 41.1218 434.075 41.1164 434.502 41.088C434.896 41.0627 435.144 41.113 435.385 41.1602C435.579 41.1983 435.76 41.2164 435.993 41.1883C436.233 41.1618 436.407 41.1784 436.601 41.2195C436.876 41.2759 436.896 41.2697 437.805 41.2851C437.898 41.2864 438.012 41.3093 438.066 41.3291C438.093 41.3399 438.033 41.3707 437.986 41.3861C437.926 41.4047 437.833 41.4263 437.746 41.4311C436.758 41.4728 435.763 41.5098 434.775 41.5515C434.675 41.5563 434.568 41.5672 434.495 41.5827C434.415 41.5998 434.315 41.623 434.315 41.6445C434.315 41.6598 434.449 41.678 434.543 41.6886C434.837 41.7235 435.184 41.6691 435.472 41.7085C435.666 41.7343 435.826 41.7709 436.02 41.7951C436.101 41.8058 436.228 41.804 436.328 41.8008C436.662 41.7894 436.989 41.7735 437.323 41.7637C437.416 41.762 437.523 41.7772 437.61 41.7893C438.253 41.8804 438.253 41.8804 438.807 41.8594C439.027 41.8514 439.261 41.8279 439.468 41.8368C439.669 41.8457 439.843 41.8868 440.024 41.9126C440.398 41.9673 440.753 42.0204 440.781 42.1402C440.795 42.1863 441.016 42.2259 441.237 42.2285C441.45 42.2312 441.677 42.214 441.898 42.2044C442.419 42.185 442.419 42.185 443.094 42.2776C443.282 42.3034 443.482 42.3061 443.723 42.2903C443.816 42.284 443.93 42.2899 444.03 42.2975C444.358 42.3199 444.358 42.3491 444.145 42.4048C443.845 42.4867 443.872 42.4944 444.715 42.562C445.036 42.5876 445.283 42.6363 445.551 42.6789C445.986 42.7473 445.98 42.7473 445.693 42.8384C445.627 42.8585 445.567 42.8801 445.5 42.9017C445.307 42.962 445.155 43.0268 444.754 43.0336C444.313 43.0405 443.872 43.0659 443.432 43.0836C443.004 43.1012 442.891 43.1383 442.933 43.2426C442.981 43.3685 443.068 43.3822 443.836 43.3794C444.057 43.379 444.25 43.3909 444.418 43.4321C444.338 43.4814 444.192 43.5201 443.978 43.5297C443.431 43.5537 442.876 43.5746 442.329 43.5955C441.888 43.6132 441.447 43.6308 441.007 43.6485C440.733 43.6597 440.56 43.7399 440.635 43.8289C440.676 43.8795 440.709 43.9302 440.744 43.9808C440.818 44.0821 440.959 44.108 441.406 44.1026C441.52 44.1009 441.627 44.0884 441.734 44.0913C442.168 44.1013 442.377 44.2284 442.897 44.2014C443.331 44.1791 443.786 44.1737 444.213 44.1453C444.607 44.1201 444.828 44.175 445.102 44.216C445.196 44.2297 445.297 44.2587 445.377 44.257C445.931 44.2391 446.485 44.2213 447.026 44.1912C447.28 44.1784 447.433 44.1874 447.634 44.2239C448.116 44.3122 448.13 44.3075 448.844 44.2786C449.365 44.2562 449.372 44.2593 450.041 44.3518C450.228 44.3776 450.429 44.3773 450.669 44.3646C450.983 44.3487 451.31 44.3235 451.638 44.346C451.738 44.352 451.865 44.3702 451.899 44.3901C451.919 44.4039 451.826 44.4378 451.746 44.4487C451.159 44.5296 450.471 44.517 449.83 44.5504C449.629 44.56 449.428 44.5311 449.261 44.4899C449.087 44.4487 448.9 44.4322 448.672 44.4403C448.232 44.4579 447.784 44.4694 447.35 44.4948C446.977 44.5169 446.716 44.4821 446.454 44.4349C446.367 44.4197 446.267 44.3906 446.18 44.3923C445.192 44.4248 444.197 44.4572 443.215 44.502C442.821 44.5211 442.593 44.4723 442.326 44.4313C442.232 44.4176 442.138 44.3886 442.051 44.3903C441.717 44.397 441.39 44.4145 441.056 44.4274C439.841 44.4756 438.632 44.5237 437.417 44.5689C437.337 44.5721 437.236 44.54 437.143 44.5263C436.962 44.499 436.774 44.4732 436.587 44.4474C436.253 44.4603 435.926 44.4762 435.592 44.486C435.352 44.4926 435.138 44.5145 435.106 44.5729C435.086 44.6113 435.307 44.6463 435.541 44.6428C435.768 44.6393 435.995 44.6205 436.182 44.6401C437.112 44.7369 437.112 44.7384 437.693 44.7174C438.2 44.6981 438.147 44.6828 438.595 44.7665C438.789 44.8031 438.963 44.8243 439.184 44.8147C439.731 44.7922 440.286 44.7698 440.84 44.7504C440.927 44.7471 441.04 44.7623 441.127 44.7744C441.783 44.8655 441.783 44.8686 442.324 44.8446C443.032 44.8157 443.059 44.808 443.534 44.9008C443.862 44.9648 444.162 44.9197 444.476 44.9161C444.838 44.9754 445.232 45.0285 445.561 45.0955C445.949 45.1747 446.356 45.1602 446.797 45.1364C447.124 45.1189 447.445 45.1122 447.713 45.1747C447.967 45.2327 448.275 45.2383 448.622 45.2223C448.936 45.208 449.256 45.1782 449.584 45.2114C449.671 45.2205 449.805 45.2433 449.798 45.2572C449.792 45.2787 449.705 45.3096 449.618 45.3189C449.005 45.383 448.33 45.3826 447.682 45.4129C447.595 45.4177 447.482 45.401 447.395 45.3888C447.207 45.3615 447.026 45.3296 446.846 45.3007C446.519 45.3105 446.185 45.3141 445.864 45.3331C445.617 45.3474 445.43 45.3462 445.249 45.3096C445.082 45.2761 444.901 45.2349 444.7 45.2245C444.5 45.2141 444.266 45.2376 444.046 45.2472C443.826 45.2568 443.572 45.2526 443.398 45.2775C443.225 45.3024 443.119 45.3563 443.006 45.3995C442.879 45.4474 442.706 45.4631 442.452 45.4681C442.218 45.4731 442.031 45.4673 441.857 45.4246C441.783 45.4063 441.683 45.3926 441.582 45.3805C441.489 45.3699 441.382 45.3532 441.295 45.3564C440.3 45.3935 439.312 45.4336 438.317 45.4722C437.822 45.4915 437.829 45.4915 436.799 45.4026C436.706 45.3951 436.592 45.3846 436.498 45.3878C435.944 45.4072 435.397 45.4297 434.842 45.4521C434.281 45.4746 434.288 45.4715 433.332 45.3764C433.158 45.3583 432.904 45.3833 432.697 45.3806C432.263 45.3736 432.047 45.245 431.54 45.2704C431.106 45.2927 430.652 45.2981 430.218 45.3265C429.824 45.3518 429.596 45.2984 429.328 45.2574C429.235 45.2437 429.134 45.2132 429.054 45.2164C428.059 45.2519 427.071 45.292 425.748 45.2989C425.421 45.2995 425.568 45.3315 425.782 45.3419C426.089 45.3583 426.189 45.3258 426.022 45.2647C425.901 45.2218 425.727 45.2006 425.587 45.2116C425.513 45.2179 425.42 45.2473 425.748 45.2989C426.096 45.3567 426.077 45.389 426.137 45.4073C426.284 45.4516 426.492 45.4697 426.705 45.4632C427.039 45.4518 427.367 45.4359 427.7 45.4261C427.794 45.4229 427.908 45.4334 427.995 45.4456C428.731 45.5396 428.737 45.5457 429.519 45.5075C429.766 45.4963 429.946 45.496 430.14 45.5248C430.408 45.5643 430.602 45.6316 431.01 45.6093C431.55 45.5792 432.105 45.5614 432.659 45.5435C432.746 45.5403 432.84 45.5678 432.94 45.5799C433.214 45.6163 433.416 45.6851 433.823 45.6552C434.136 45.6316 434.477 45.6248 434.811 45.6196C434.898 45.6179 435.032 45.6423 435.072 45.6622C435.153 45.6974 435.053 45.7391 434.826 45.7686C434.733 45.7811 434.606 45.7782 434.499 45.783C434.058 45.8007 433.618 45.8199 433.177 45.8345C432.943 45.8426 432.723 45.866 432.697 45.9229C432.677 45.9613 432.918 45.9947 433.145 45.9912C433.479 45.9861 433.813 45.9732 434.134 45.9527C434.701 45.9179 435.196 45.9262 435.658 46.0222C435.986 46.0892 435.966 46.0647 436.315 46.2638C436.403 46.3144 436.663 46.3185 436.891 46.3151C437.438 46.3064 437.692 46.329 437.646 46.3767C437.587 46.4352 437.393 46.454 437.146 46.4621C436.705 46.4752 436.265 46.4959 435.824 46.5136C435.717 46.5184 435.597 46.5278 435.497 46.5249C435.397 46.522 435.303 46.5037 435.216 46.49C435.028 46.4612 434.867 46.4169 434.667 46.4065C434.466 46.3961 434.233 46.4195 434.013 46.4291C433.792 46.4372 433.559 46.4606 433.358 46.4502C433.158 46.4398 432.99 46.394 432.809 46.3667C432.722 46.353 432.615 46.3317 432.528 46.3334C432.087 46.3464 431.647 46.3672 431.206 46.3833C430.665 46.4042 430.665 46.4042 430.009 46.3101C429.822 46.2828 429.628 46.2847 429.381 46.2974C428.847 46.3229 428.84 46.3183 427.864 46.2309C427.77 46.2218 427.656 46.2113 427.563 46.216C426.568 46.2531 425.58 46.2932 424.591 46.3318C423.743 46.3655 423.743 46.3656 423.278 46.52C422.932 46.6343 422.925 46.6343 423.266 46.6859C423.541 46.7285 423.789 46.791 424.09 46.8135C424.37 46.8346 424.717 46.7648 425.025 46.835C425.179 46.87 425.38 46.9081 425.574 46.9139C425.881 46.9211 426.208 46.8759 426.503 46.943C426.65 46.9766 426.871 47.0115 427.058 47.0127C427.386 47.0152 427.719 46.9901 428.047 46.9787C428.147 46.9755 428.26 46.9753 428.354 46.9828C428.454 46.9919 428.541 47.0102 428.628 47.0254C428.896 47.0771 429.184 47.1012 429.531 47.0745C430.098 47.0305 430.606 47.0511 431.048 47.1487C431.109 47.1624 431.256 47.1637 431.349 47.1574C431.589 47.1416 431.796 47.1397 431.977 47.1686C432.051 47.1807 432.158 47.202 432.145 47.2159C432.125 47.239 432.045 47.2698 431.958 47.2777C431.331 47.331 430.657 47.3383 430.009 47.3671C429.922 47.3703 429.815 47.3505 429.728 47.3369C429.541 47.3095 429.38 47.2637 429.179 47.2533C428.978 47.2429 428.745 47.2633 428.525 47.2714C428.304 47.2794 428.071 47.3029 427.87 47.294C427.67 47.2836 427.482 47.2455 427.321 47.212C427.134 47.1739 426.953 47.1696 426.706 47.1854C426.386 47.2059 426.052 47.2096 425.725 47.2209C425.544 47.192 425.363 47.1601 425.176 47.1327C425.089 47.1191 424.982 47.1024 424.888 47.1041C424.447 47.1171 424.007 47.1363 423.566 47.154C423.125 47.1716 423.125 47.1717 422.376 47.0777C422.289 47.0671 422.175 47.055 422.082 47.0582C421.527 47.0776 420.98 47.1016 420.426 47.121C420.212 47.1291 420.018 47.1079 419.844 47.0667C419.676 47.0255 419.476 47.0028 419.269 47.0109C418.387 47.0447 417.506 47.0769 416.624 47.1169C416.27 47.1329 415.97 47.1196 415.728 47.0647C415.447 47.0022 415.133 47.0181 414.806 47.0309C414.065 47.063 414.058 47.0614 413.583 46.9839C413.489 46.9687 413.395 46.9397 413.309 46.9413C412.541 46.9657 411.766 46.9886 411.005 47.0268C410.604 47.0474 410.39 46.994 410.122 46.9546C410.028 46.9409 409.928 46.9119 409.848 46.9151C409.293 46.933 408.739 46.9493 408.198 46.981C407.657 47.0126 407.449 46.8701 407.041 46.8724C406.487 46.8749 405.939 46.9111 405.392 46.9336C404.951 46.9513 404.51 46.9689 404.07 46.9866C403.629 47.0043 403.188 47.0188 402.748 47.0396C402.514 47.0507 402.34 47.0372 402.146 46.9991C401.898 46.9489 401.604 46.9095 401.336 46.8638C400.928 46.7985 400.927 46.7985 400.433 46.8178C400.327 46.8226 400.213 46.8258 400.106 46.8306C399.298 46.8658 399.298 46.8628 398.268 46.7678C398.221 46.7632 398.101 46.7803 398.055 46.7927C397.915 46.8329 397.789 46.8761 397.662 46.9178C397.481 46.8936 397.261 46.8801 397.14 46.845C396.798 46.7457 396.265 46.8834 395.917 46.7857C395.789 46.749 395.568 46.7171 395.368 46.7083C395.161 46.6994 394.927 46.7213 394.714 46.7309C394.159 46.7549 394.159 46.7534 393.687 46.8909C393.447 46.959 393.1 46.9473 392.786 46.9632C392.459 46.9806 392.145 46.9904 391.87 46.9279C391.622 46.8715 391.321 46.8582 390.968 46.8772C390.534 46.901 390.086 46.9156 389.645 46.9302C389.552 46.9334 389.438 46.926 389.344 46.9169C388.321 46.828 388.321 46.8265 387.827 46.8473C387.607 46.8569 387.38 46.8604 387.166 46.8746C386.806 46.8998 386.531 46.868 386.27 46.8193C386.183 46.8041 386.083 46.7751 385.996 46.7768C385.555 46.7852 385.121 46.7998 384.687 46.8144C384.353 46.8257 384.019 46.8324 383.699 46.8545C383.165 46.8908 382.903 46.7914 382.535 46.7459C381.987 46.7668 381.433 46.7816 380.885 46.8102C380.632 46.823 380.465 46.8186 380.271 46.7821C380.023 46.7365 379.795 46.6846 379.394 46.7084C378.86 46.74 378.299 46.7517 377.752 46.7711C377.384 46.7241 377.115 46.6278 376.588 46.6641C376.268 46.6861 375.927 46.6913 375.6 46.7042C375.159 46.7218 374.718 46.738 374.278 46.7572C373.804 46.7764 373.81 46.7718 373.081 46.6824C372.659 46.6294 372.226 46.6901 371.798 46.7C371.464 46.7083 371.298 46.7793 371.38 46.8698C371.461 46.9603 371.281 47.0312 370.974 47.0441C370.206 47.0746 369.432 47.1067 368.664 47.1341C368.57 47.1373 368.457 47.1268 368.37 47.1162C367.547 47.0208 367.547 47.0224 367.179 47.0368C366.632 47.0608 366.071 47.0741 365.53 47.1042C365.156 47.1248 364.882 47.0931 364.641 47.0412C364.453 47.0016 364.279 46.9927 364.039 47.0023C361.395 47.1099 358.75 47.2097 356.113 47.3203C355.719 47.3363 355.491 47.2922 355.224 47.2512C355.13 47.2375 355.043 47.2085 354.949 47.2086C354.729 47.209 354.508 47.2232 354.288 47.2328C353.3 47.2714 352.312 47.3177 351.317 47.3471C350.896 47.3601 350.783 47.431 350.603 47.4897C350.464 47.5344 350.304 47.5532 350.057 47.5597C349.816 47.5663 349.642 47.5589 349.455 47.5193C349.214 47.4675 348.939 47.4357 348.566 47.4578C348.132 47.4832 347.691 47.4947 347.243 47.5124C347.016 47.5205 346.843 47.5484 346.77 47.6038C346.757 47.6131 346.897 47.6359 346.978 47.6496C347.246 47.6952 347.5 47.7485 347.801 47.7803C348.109 47.812 348.442 47.7745 348.763 47.7648C348.876 47.7615 348.983 47.7521 349.09 47.7534C349.19 47.7548 349.311 47.7623 349.384 47.776C349.733 47.8445 350.1 47.8915 350.581 47.8492C350.995 47.8684 351.211 47.9956 351.738 47.9609C352.059 47.9403 352.393 47.9305 352.727 47.9223C352.813 47.9206 352.907 47.9481 353.001 47.9617C353.269 47.9997 353.483 48.0608 353.884 48.034C354.311 48.0056 354.765 48.0002 355.199 47.9779C355.439 47.9652 355.613 47.9756 355.801 48.0153C356.042 48.0655 356.316 48.1035 356.69 48.0782C357.01 48.0562 357.351 48.051 357.678 48.0366C358.106 48.0189 358.106 48.0205 358.868 48.1144C358.955 48.125 359.069 48.1371 359.163 48.1339C359.717 48.1145 360.264 48.0905 360.819 48.0711C361.032 48.063 361.24 48.0826 361.387 48.1269C361.448 48.1453 361.428 48.176 361.448 48.2021C360.346 48.2455 359.245 48.2827 358.15 48.3353C357.736 48.356 357.548 48.2934 357.273 48.2585C357.18 48.2464 357.079 48.2204 356.992 48.2237C356.218 48.2511 355.45 48.2801 354.682 48.3152C354.442 48.3264 354.261 48.3206 354.08 48.2763C353.618 48.1589 353.058 48.2244 352.537 48.2422C352.136 48.2551 352.01 48.303 352.058 48.4043C352.119 48.524 352.36 48.5605 352.974 48.5379C353.195 48.5299 353.415 48.5187 353.636 48.5122C353.849 48.5057 354.043 48.5253 354.217 48.5665C354.385 48.6077 354.586 48.6288 354.793 48.6223C355.233 48.6077 355.681 48.5931 356.108 48.5693C356.462 48.5503 356.756 48.5651 357.004 48.6216C357.279 48.6841 357.599 48.6697 357.92 48.6553C358.668 48.6233 358.674 48.6248 359.143 48.7008C359.236 48.716 359.33 48.745 359.417 48.7434C360.185 48.719 360.96 48.6977 361.714 48.6595C362.108 48.6404 362.336 48.6891 362.597 48.7286C362.691 48.7423 362.785 48.7728 362.871 48.7696C363.426 48.7518 363.98 48.7339 364.521 48.7038C364.774 48.6895 364.928 48.6984 365.136 48.7349C365.631 48.8247 365.645 48.8216 366.346 48.7912C366.559 48.7816 366.793 48.7643 366.993 48.7763C367.194 48.7882 367.355 48.8325 367.542 48.8598C367.629 48.872 367.736 48.8887 367.83 48.8854C368.271 48.8724 368.711 48.8532 369.152 48.8355C369.566 48.8179 369.566 48.8194 370.342 48.9133C370.657 48.9527 370.984 48.9184 371.298 48.9055C371.638 48.8911 371.945 48.8906 372.207 48.9501C372.468 49.0095 372.782 49.0059 373.116 48.993C373.43 48.9802 373.75 48.9458 374.071 48.9868C374.807 49.0807 374.807 49.0823 375.261 49.063C375.922 49.0358 376.576 49.0101 377.244 48.9858C377.331 48.9826 377.445 49.0009 377.532 49.013C377.719 49.0403 377.88 49.0861 378.081 49.0965C378.281 49.1085 378.515 49.0896 378.728 49.0801C379.416 49.0497 379.463 49.0388 379.925 49.1394C380.314 49.2217 380.793 49.1011 381.155 49.1957C381.363 49.2491 381.644 49.2916 382.031 49.2648C382.351 49.2428 382.685 49.236 383.019 49.2232C383.547 49.2023 383.547 49.2038 384.216 49.2948C384.303 49.307 384.417 49.3221 384.503 49.3189C384.944 49.3059 385.392 49.2943 385.819 49.2659C386.32 49.2328 386.641 49.2906 387.016 49.3468C387.31 49.3909 387.657 49.3534 387.971 49.3375C388.312 49.3215 388.619 49.3256 388.873 49.3851C389.141 49.4461 389.455 49.4378 389.789 49.425C390.103 49.4137 390.423 49.3778 390.745 49.4202C391.434 49.5143 391.434 49.5143 391.935 49.495C392.375 49.4773 392.816 49.4581 393.257 49.4451C393.344 49.4418 393.451 49.4616 393.538 49.4753C393.725 49.5026 393.886 49.5484 394.087 49.5588C394.287 49.5693 394.521 49.5489 394.741 49.5408C394.961 49.5327 395.195 49.5093 395.395 49.5182C395.596 49.527 395.784 49.5651 395.944 49.5986C396.132 49.6383 396.306 49.6426 396.559 49.6268C396.88 49.6062 397.214 49.601 397.541 49.5897C397.722 49.6186 397.909 49.6475 398.083 49.6794C398.264 49.7129 398.458 49.7095 398.705 49.6983C399.526 49.66 399.533 49.6646 400.222 49.7587C400.536 49.8011 400.863 49.7652 401.177 49.7539C401.511 49.7411 401.825 49.7344 402.086 49.7954C402.341 49.8533 402.655 49.8604 402.989 49.8414C403.202 49.8288 403.429 49.8207 403.65 49.8157C403.75 49.814 403.87 49.8199 403.944 49.8321C404.299 49.896 404.647 49.9538 405.134 49.9115C405.562 49.923 405.777 50.0486 406.291 50.0231C406.725 50.0009 407.179 49.9955 407.607 49.9671C408 49.9418 408.282 49.9843 408.483 50.0378C408.845 50.1324 409.351 50.0025 409.713 50.0955C409.92 50.149 410.188 50.1915 410.589 50.1678C411.029 50.1424 411.17 50.1744 411.298 50.271C411.372 50.3262 411.359 50.3708 411.226 50.414C411.093 50.4588 410.946 50.4514 410.732 50.401C410.484 50.3446 410.19 50.3344 409.836 50.3473C409.489 50.3602 409.274 50.2807 408.986 50.2504C408.699 50.2187 408.359 50.273 408.058 50.2321C407.348 50.1365 407.348 50.1365 406.867 50.1558C406.54 50.1687 406.2 50.1754 405.879 50.1975C405.499 50.2242 405.251 50.177 404.99 50.1345C404.896 50.1193 404.802 50.0902 404.722 50.0919C403.954 50.1163 403.179 50.1392 402.418 50.1789C402.018 50.1996 401.803 50.1446 401.536 50.1067C401.442 50.093 401.341 50.0655 401.261 50.0687C400.6 50.0914 399.946 50.1202 399.285 50.1475C399.158 50.1892 399.018 50.2293 398.899 50.2741C398.772 50.3204 398.599 50.3407 398.345 50.3396C397.924 50.3403 397.511 50.4056 397.089 50.3249C396.654 50.2427 396.62 50.2473 396.2 50.268C395.666 50.2951 395.098 50.2899 394.597 50.3507C394.511 50.3616 394.417 50.391 394.418 50.4125C394.411 50.4263 394.552 50.446 394.639 50.4582C394.933 50.4945 395.273 50.4402 395.567 50.4781C395.762 50.5023 395.922 50.5389 396.116 50.5647C396.197 50.5753 396.317 50.5736 396.424 50.5718C396.537 50.5701 396.644 50.5592 396.751 50.5605C396.851 50.5619 396.958 50.5709 397.039 50.5846C397.407 50.6423 397.795 50.6954 398.123 50.764C398.445 50.831 398.745 50.7844 399.065 50.7808C400.349 50.8861 400.349 50.8877 401.211 50.8524C401.424 50.8443 401.645 50.8347 401.865 50.8359C401.959 50.8357 402.046 50.8632 402.14 50.8784C402.407 50.924 402.662 50.9651 403.036 50.9398C403.356 50.9178 403.697 50.9126 404.024 50.8982C404.465 50.8805 404.465 50.8805 405.214 50.976C405.401 51.0002 405.602 50.9968 405.842 50.9841C406.049 50.973 406.263 50.9957 406.41 51.04C406.471 51.0583 406.451 51.0891 406.472 51.1152C405.81 51.1409 405.143 51.1589 404.502 51.1969C404.088 51.2207 403.9 51.155 403.626 51.1201C403.532 51.108 403.431 51.082 403.345 51.0853C402.69 51.1094 402.036 51.1367 401.382 51.1685C401.301 51.1717 401.202 51.2073 401.195 51.2288C401.182 51.2687 401.35 51.3069 401.59 51.3049C401.911 51.3028 402.225 51.2761 402.513 51.3386C402.754 51.3935 403.055 51.4176 403.408 51.3924C403.622 51.3782 403.849 51.3778 404.063 51.3651C404.63 51.3273 405.145 51.3341 405.573 51.4378C405.901 51.4649 406.222 51.4382 406.535 51.4238C406.769 51.4127 406.996 51.4015 407.163 51.4304C407.518 51.4913 407.866 51.5521 408.354 51.5098C408.882 51.5519 409.284 51.6418 409.726 51.7148C409.933 51.7498 410.094 51.7695 410.334 51.746C410.434 51.7366 410.554 51.7364 410.661 51.7316C410.882 51.7236 411.115 51.7001 411.316 51.709C411.516 51.7194 411.684 51.7636 411.864 51.791C411.951 51.8047 412.052 51.8275 412.139 51.8258C412.473 51.8176 412.8 51.8017 413.127 51.7888C413.454 51.7775 413.781 51.7662 414.109 51.7548C414.383 51.7943 414.664 51.8338 414.938 51.8732C415.379 51.8556 415.82 51.8379 416.254 51.8218C416.742 51.8025 416.741 51.804 417.444 51.8981C417.759 51.9405 418.092 51.9123 418.393 51.8918C418.893 51.8587 419.228 51.9165 419.583 51.9773C419.657 51.9895 419.79 51.9969 419.877 51.9906C420.224 51.9685 420.525 51.9849 420.779 52.0413C420.96 52.0809 421.141 52.099 421.361 52.091C422.129 52.0605 422.897 52.0284 423.665 52.0009C423.759 51.9977 423.866 52.0114 423.953 52.0235C424.635 52.116 424.642 52.1206 425.143 52.0952C425.59 52.0729 426.004 52.0629 426.359 52.1468C426.433 52.1651 426.547 52.1911 426.627 52.1894C427.174 52.1731 427.729 52.1552 428.27 52.1281C428.517 52.1154 428.69 52.1197 428.885 52.1547C429.132 52.1989 429.353 52.2522 429.761 52.2316C430.889 52.1728 430.896 52.182 432.233 52.2856C432.327 52.2932 432.454 52.2807 432.56 52.2743C432.787 52.2586 432.955 52.2798 433.155 52.3148C433.604 52.3939 433.617 52.3893 434.045 52.3716C434.372 52.3572 434.713 52.3535 435.033 52.3299C435.527 52.2953 435.855 52.3546 436.223 52.4108C436.518 52.4549 436.858 52.4174 437.172 52.4031C437.512 52.3871 437.82 52.3912 438.074 52.4491C438.248 52.4887 438.436 52.5099 438.656 52.5019C439.424 52.4729 440.192 52.4408 440.96 52.4118C441.053 52.4086 441.167 52.4207 441.254 52.4313C442.017 52.5252 442.017 52.5298 442.771 52.4932C443.012 52.482 443.212 52.4786 443.393 52.5105C443.567 52.541 443.754 52.5698 443.935 52.5987C444.262 52.5874 444.596 52.5837 444.917 52.5647C445.164 52.5505 445.337 52.5563 445.531 52.5883C445.786 52.6293 446.001 52.7011 446.401 52.6651C446.608 52.6478 446.848 52.652 447.055 52.6363C447.302 52.6159 447.469 52.6279 447.664 52.6675C447.905 52.7147 448.152 52.7634 448.54 52.7382C448.967 52.7098 449.421 52.7044 449.855 52.6821C450.095 52.6694 450.263 52.6814 450.457 52.721C450.698 52.7713 450.972 52.8031 451.346 52.7825C452.107 52.7428 452.114 52.7504 452.857 52.8459C453.044 52.8702 453.244 52.8668 453.485 52.8541C453.692 52.8429 453.906 52.8656 454.053 52.9099C454.194 52.9588 454.181 52.9896 454.195 53.0157ZM394.496 39.2632C394.275 39.2712 394.055 39.2808 393.733 39.1477C393.712 39.1247 393.725 39.0971 393.678 39.0772C393.571 39.0359 393.404 39.007 393.203 39.0027C392.842 38.9972 392.409 39.0502 392.416 39.0901C392.423 39.1239 392.537 39.1529 392.758 39.1802C392.851 39.1907 392.925 39.2091 393.012 39.2212C393.266 39.2561 393.468 39.3249 393.835 39.2889C393.767 39.1938 393.801 39.2413 393.835 39.2889C393.802 39.3474 393.903 39.3887 394.143 39.4051C394.21 39.4096 394.31 39.4064 394.364 39.3971C394.57 39.3629 394.603 39.3168 394.448 39.1957C394.422 39.2157 394.442 39.251 394.502 39.2601C394.563 39.2692 394.709 39.2613 394.783 39.2504C394.969 39.2209 395.063 39.1823 395.015 39.1501C394.989 39.1333 394.861 39.112 394.781 39.1121C394.641 39.1124 394.514 39.1464 394.496 39.2632ZM448.732 56.9858C448.244 57.0159 447.683 57.0061 447.196 57.0668C447.109 57.0777 447.023 57.1055 447.016 57.1271C447.01 57.1409 447.144 57.1607 447.224 57.1713C447.405 57.1955 447.605 57.1875 447.839 57.1794C448.193 57.168 448.401 57.2383 448.675 57.2732C448.762 57.2838 448.876 57.2913 448.969 57.2881C449.51 57.2687 450.044 57.2478 450.585 57.2253C450.679 57.2206 450.779 57.2096 450.859 57.1957C451.125 57.1507 451.098 57.1215 450.837 57.0882C450.55 57.0518 450.322 56.9907 450.027 56.9621C449.606 56.9213 449.179 56.9774 448.732 56.9858ZM410.806 58.1732C410.479 58.1861 410.159 58.1989 409.831 58.2118C409.725 58.2166 409.611 58.2183 409.511 58.2246C409.304 58.2357 409.151 58.2683 409.051 58.3191C409.205 58.3588 409.393 58.3815 409.6 58.3766C409.927 58.3668 410.247 58.3462 410.575 58.3411C410.929 58.3343 411.137 58.4031 411.411 58.4379C411.498 58.4485 411.605 58.4499 411.705 58.4513C412.199 58.4565 412.499 58.3761 412.404 58.2641C412.336 58.1767 412.082 58.1249 411.775 58.1362C411.454 58.1475 411.127 58.1604 410.806 58.1732ZM450.989 54.7112C451.069 54.6849 451.155 54.6664 451.195 54.6432C451.314 54.5647 451.267 54.5064 451.046 54.4453C450.777 54.3705 450.451 54.4218 450.15 54.43C450.077 54.4316 449.997 54.464 449.957 54.4841C449.931 54.4979 449.931 54.5271 449.971 54.5348C450.299 54.5956 450.647 54.6519 450.989 54.7112ZM392.98 50.2736C392.659 50.2865 392.332 50.2963 392.011 50.3137C391.931 50.3185 391.858 50.3478 391.812 50.3678C391.725 50.4049 391.819 50.4554 392.093 50.4595C392.407 50.4651 392.734 50.4384 393.062 50.4256C393.476 50.4095 393.722 50.3522 393.568 50.3033C393.42 50.256 393.22 50.2471 392.98 50.2736ZM41.2813 47.6013C41.495 47.5932 41.7154 47.5867 41.929 47.5756C42.1293 47.5645 42.2827 47.5304 42.3823 47.4795C42.2148 47.4399 42.0274 47.4187 41.8204 47.4237C41.4931 47.4334 41.1726 47.4463 40.8522 47.4622C40.6519 47.4718 40.4586 47.5059 40.4125 47.5582C40.3662 47.5983 40.8139 47.6205 41.2813 47.6013ZM364.685 46.803C364.772 46.8167 364.859 46.8442 364.946 46.8441C365.159 46.8437 365.38 46.8341 365.58 46.8184C365.667 46.8121 365.733 46.7843 365.773 46.7627C365.8 46.7489 365.793 46.7243 365.753 46.7121C365.558 46.6387 364.783 46.6661 364.657 46.7508C364.644 46.7662 364.678 46.7861 364.685 46.803ZM343.505 38.4269C343.525 38.4514 343.532 38.476 343.559 38.5005C343.613 38.5465 343.761 38.5801 343.975 38.6027C344.141 38.564 344.228 38.5209 344.221 38.4748C344.214 38.4502 344.193 38.4257 344.166 38.4011C344.112 38.3551 343.965 38.3216 343.751 38.2989C343.584 38.3361 343.504 38.3792 343.505 38.4269ZM466.472 58.3439C466.412 58.3639 466.352 58.384 466.286 58.4026C466.467 58.4468 466.634 58.4603 466.761 58.4355C466.841 58.42 466.887 58.3969 466.947 58.3768C466.766 58.3326 466.605 58.3206 466.472 58.3439ZM462.319 58.56C462.406 58.5737 462.487 58.592 462.58 58.601C462.734 58.6161 462.874 58.5898 462.98 58.5343C462.893 58.5206 462.813 58.5023 462.719 58.4932C462.566 58.4781 462.426 58.5045 462.319 58.56ZM464.948 58.2743C464.902 58.3113 464.996 58.3418 465.243 58.3675C465.303 58.3474 465.383 58.3288 465.423 58.3073C465.489 58.2718 465.375 58.2398 465.134 58.2156C465.068 58.2341 465.008 58.2542 464.948 58.2743ZM450.825 56.6427C450.779 56.6796 450.873 56.7102 451.12 56.7359C451.18 56.7158 451.26 56.6972 451.3 56.6756C451.366 56.6402 451.252 56.6081 451.012 56.584C450.945 56.6025 450.885 56.6226 450.825 56.6427ZM431.48 45.8052C431.42 45.8253 431.36 45.8453 431.293 45.8639C431.474 45.9081 431.641 45.9217 431.768 45.8968C431.848 45.8813 431.894 45.8582 431.954 45.8381C431.773 45.7939 431.613 45.7819 431.48 45.8052ZM413.004 40.0699C413.165 40.0803 413.298 40.0586 413.411 40.0016C413.324 39.9879 413.244 39.9696 413.15 39.9605C412.996 39.9454 412.856 39.9718 412.75 40.0273C412.837 40.0425 412.924 40.0562 413.004 40.0699ZM403.226 39.7258C403.167 39.7459 403.107 39.766 403.04 39.7845C403.221 39.8288 403.388 39.8423 403.515 39.8175C403.595 39.802 403.641 39.7789 403.701 39.7588C403.52 39.7145 403.36 39.7041 403.226 39.7258ZM336.931 38.4367C336.872 38.4568 336.812 38.4769 336.745 38.4954C336.926 38.5397 337.093 38.5532 337.22 38.5284C337.3 38.5129 337.346 38.4898 337.406 38.4697C337.225 38.4255 337.065 38.415 336.931 38.4367ZM7.07024 51.5092C6.98322 51.4955 6.89628 51.4819 6.81593 51.4666C6.6227 51.5084 6.56306 51.547 6.67031 51.576C6.73734 51.5943 6.8376 51.6049 6.92461 51.6185C7.12452 51.5767 7.17082 51.5397 7.07024 51.5092Z" fill="#FFE492"/>
<path d="M239.065 9.41065C238.297 9.44116 237.536 9.47934 236.768 9.4991C236.361 9.50902 236.215 9.57535 236.048 9.6371C235.915 9.6865 235.762 9.70213 235.515 9.71177C233.431 9.79064 231.355 9.87412 229.278 9.95605C229.017 9.93653 228.89 9.90448 228.949 9.86596C228.983 9.84286 229.062 9.81045 229.143 9.80724C230.565 9.74794 231.98 9.68711 233.409 9.64009C233.817 9.6271 233.93 9.55929 234.136 9.50362C234.203 9.48506 234.256 9.45731 234.342 9.44641C234.429 9.43397 234.556 9.43529 234.67 9.43202C236.967 9.34049 239.264 9.2505 241.561 9.15896C241.822 9.17849 241.949 9.21054 241.889 9.24906C241.856 9.27216 241.776 9.30457 241.696 9.30778C240.815 9.34156 239.94 9.37534 239.065 9.41065Z" fill="#FFE492"/>
<path d="M659.873 16.4943C659.526 16.5133 659.085 16.5402 658.723 16.4517C658.549 16.409 658.362 16.3955 658.135 16.4051C657.807 16.421 657.474 16.4339 657.14 16.4437C657.053 16.4453 656.939 16.4286 656.852 16.415C656.665 16.3876 656.504 16.3418 656.303 16.3299C656.103 16.3179 655.863 16.3521 655.655 16.3448C655.381 16.3345 655.267 16.2932 655.34 16.2547C655.38 16.2331 655.46 16.2022 655.547 16.1975C656.782 16.1385 656.789 16.1385 657.137 16.1932C657.404 16.2358 657.652 16.283 658.033 16.2562C658.353 16.2341 658.694 16.2289 659.021 16.2145C659.475 16.1953 659.475 16.1969 660.211 16.2924C660.398 16.3167 660.599 16.3148 660.839 16.3005C661.046 16.2894 661.247 16.3137 661.414 16.3549C661.308 16.4073 661.155 16.4414 660.948 16.4509C660.614 16.4669 660.287 16.4782 659.873 16.4943Z" fill="#FFE492"/>
<path d="M647.57 16.0509C648.412 16.0172 649.26 15.9881 650.101 15.9498C650.448 15.9339 650.722 15.9503 650.964 16.0021C651.225 16.0584 651.519 16.0533 651.839 16.042C652.04 16.0355 652.234 16.0598 652.368 16.1025C652.421 16.1193 652.408 16.1501 652.429 16.1746C651.694 16.2035 650.953 16.2339 650.212 16.2597C650.125 16.263 650.018 16.2478 649.937 16.2357C649.757 16.2099 649.603 16.1641 649.409 16.1552C648.994 16.1344 648.581 16.1766 648.16 16.185C647.96 16.1884 647.765 16.1657 647.631 16.1245C647.578 16.1046 647.591 16.0754 647.57 16.0509Z" fill="#FFE492"/>
<path d="M343.189 3.71902C344.064 3.68372 344.938 3.64997 345.813 3.61466C346.074 3.63573 346.194 3.66624 346.141 3.70474C346.108 3.72785 346.029 3.76025 345.948 3.76346C344.199 3.83561 342.45 3.90467 340.707 3.97373C340.446 3.95267 340.325 3.92215 340.378 3.88365C340.411 3.86054 340.491 3.82814 340.571 3.82493C341.439 3.7881 342.314 3.75433 343.189 3.71902Z" fill="#FFE492"/>
<path d="M208.384 12.4863C207.99 12.49 207.577 12.5473 207.135 12.5052C207.049 12.4977 206.928 12.4735 206.935 12.4597C206.948 12.4367 207.027 12.4076 207.114 12.3982C207.494 12.3594 207.969 12.354 208.161 12.2466C208.254 12.1915 208.427 12.1728 208.661 12.1617C208.908 12.1491 209.082 12.1533 209.276 12.1851C209.53 12.226 209.745 12.302 210.145 12.2616C210.165 12.286 210.212 12.3135 210.193 12.3364C210.173 12.3594 210.086 12.3809 210.006 12.3979C209.933 12.4133 209.833 12.4272 209.74 12.432C209.299 12.4511 208.858 12.4671 208.384 12.4863Z" fill="#FFE492"/>
<path d="M555.894 11.3462C556.221 11.3334 556.562 11.3266 556.882 11.3046C557.136 11.2873 557.296 11.2978 557.497 11.3342C557.839 11.3981 557.859 11.3919 558.694 11.3997C558.787 11.4011 558.901 11.4239 558.955 11.4437C558.988 11.4544 558.942 11.4836 558.902 11.499C558.842 11.5191 558.756 11.5453 558.675 11.5454C558.148 11.5509 557.615 11.6424 557.099 11.5389C556.838 11.4872 556.55 11.4632 556.196 11.4868C555.983 11.501 555.756 11.5075 555.535 11.514C555.322 11.5205 555.101 11.504 554.967 11.4582C554.772 11.3911 554.886 11.3648 555.233 11.3688C555.453 11.3715 555.674 11.3542 555.894 11.3462Z" fill="#FFE492"/>
<path d="M677.087 21.5277C677.508 21.5117 677.928 21.4926 678.355 21.4797C678.442 21.4765 678.549 21.4931 678.63 21.5037C678.951 21.549 678.905 21.627 678.919 21.6958C678.927 21.7676 678.186 21.8269 677.871 21.7786C677.523 21.7241 677.209 21.662 676.728 21.6965C676.541 21.709 676.321 21.6819 676.2 21.6377C676.019 21.5739 676.119 21.5477 676.459 21.5517C676.66 21.5544 676.873 21.5372 677.087 21.5277Z" fill="#FFE492"/>
<path d="M464.77 1.35855C465.204 1.34095 465.638 1.31417 466.072 1.3119C466.326 1.30994 466.453 1.36029 466.394 1.39718C466.36 1.42022 466.281 1.45254 466.2 1.45575C465.332 1.494 464.465 1.52614 463.596 1.56133C463.342 1.5403 463.215 1.50834 463.275 1.47146C463.308 1.44841 463.388 1.41762 463.468 1.41289C463.902 1.39069 464.336 1.37615 464.77 1.35855Z" fill="#FFE492"/>
<path d="M668.716 16.6035C669.137 16.5875 669.564 16.5638 669.985 16.5554C670.205 16.552 670.379 16.5869 670.406 16.6267C670.42 16.645 670.313 16.6774 670.227 16.6852C669.626 16.7383 668.978 16.7456 668.351 16.7727C668.15 16.7807 667.936 16.7566 667.815 16.7139C667.634 16.6483 667.734 16.6236 668.075 16.6276C668.289 16.6288 668.502 16.6116 668.716 16.6035Z" fill="#FFE492"/>
<path d="M566.934 11.5252C567.148 11.5172 567.368 11.497 567.575 11.5027C567.796 11.51 567.936 11.554 568.004 11.5982C568.078 11.6484 568.072 11.6957 568.005 11.7386C567.899 11.812 567.792 11.8092 567.545 11.7607C567.163 11.6851 567.137 11.6943 566.382 11.6986C566.295 11.6988 566.188 11.676 566.121 11.6563C566.02 11.626 566.073 11.5786 566.307 11.5507C566.48 11.5306 566.721 11.5332 566.934 11.5252Z" fill="#FFE492"/>
<path d="M653.055 16.1421C653.369 16.1294 653.683 16.1089 653.996 16.1084C654.217 16.1065 654.391 16.1414 654.412 16.1796C654.418 16.198 654.319 16.2287 654.239 16.2381C653.858 16.28 653.431 16.2838 653.017 16.2983C652.823 16.3048 652.609 16.2806 652.488 16.238C652.307 16.174 652.414 16.1448 652.741 16.1534C652.842 16.1563 652.948 16.1469 653.055 16.1421Z" fill="#FFE492"/>
<path d="M603.61 14.3977C603.143 14.4168 602.701 14.3946 602.734 14.3548C602.78 14.3027 602.974 14.2686 603.174 14.2591C603.494 14.2433 603.815 14.2305 604.142 14.2207C604.349 14.2143 604.536 14.2369 604.704 14.2764C604.604 14.3255 604.451 14.361 604.251 14.3721C604.044 14.3831 603.824 14.3896 603.61 14.3977Z" fill="#FFE492"/>
<path d="M600.542 14.2098C600.856 14.197 601.17 14.1766 601.484 14.176C601.704 14.1741 601.878 14.209 601.899 14.2472C601.906 14.2656 601.806 14.2964 601.726 14.3057C601.346 14.3477 600.918 14.3515 600.504 14.3659C600.311 14.3724 600.097 14.3483 599.976 14.3056C599.795 14.2417 599.901 14.2124 600.229 14.221C600.329 14.2239 600.436 14.2145 600.542 14.2098Z" fill="#FFE492"/>
<path d="M563.145 11.5224C563.458 11.5096 563.772 11.4891 564.086 11.4871C564.306 11.4852 564.48 11.5201 564.501 11.5583C564.508 11.5766 564.408 11.6059 564.328 11.6167C563.948 11.6587 563.52 11.6625 563.106 11.677C562.913 11.6834 562.699 11.6593 562.578 11.6167C562.397 11.5527 562.503 11.5234 562.831 11.5321C562.931 11.535 563.038 11.5256 563.145 11.5224Z" fill="#FFE492"/>
<path d="M561.388 11.4367C561.722 11.4239 561.829 11.416 561.935 11.4158C562.136 11.4155 562.343 11.4335 562.464 11.4777C562.645 11.5416 562.538 11.5602 562.211 11.5638C561.79 11.5676 561.377 11.6004 560.956 11.6073C560.735 11.6107 560.561 11.5743 560.547 11.536C560.54 11.5177 560.64 11.4854 560.72 11.4791C561.001 11.4557 561.308 11.4414 561.388 11.4367Z" fill="#FFE492"/>
<path d="M597.72 2.41342C597.506 2.42143 597.279 2.44322 597.079 2.43592C596.812 2.42568 596.704 2.38459 596.771 2.34625C596.81 2.32478 596.883 2.29408 596.964 2.28936C597.391 2.26722 597.825 2.25271 598.252 2.23669C598.506 2.25919 598.62 2.2911 598.554 2.32943C598.514 2.3509 598.441 2.38008 598.361 2.38633C598.154 2.40197 597.933 2.40541 597.72 2.41342Z" fill="#FFE492"/>
<path d="M338.402 3.91039C338.609 3.90851 338.796 3.92805 338.957 3.96597C338.857 4.01502 338.711 4.04736 338.511 4.06145C338.41 4.06773 338.297 4.0725 338.19 4.07421C337.983 4.07762 337.796 4.05655 337.635 4.01863C337.735 3.96958 337.888 3.93723 338.081 3.92315C338.181 3.91687 338.295 3.91516 338.402 3.91039Z" fill="#FFE492"/>
<path d="M666.428 16.602C666.421 16.5577 666.828 16.5066 667.195 16.5075C667.389 16.5087 667.59 16.5298 667.704 16.5708C667.878 16.6332 667.778 16.6578 667.451 16.6537C667.25 16.651 667.037 16.6774 666.837 16.6731C666.609 16.672 666.476 16.6386 666.428 16.602Z" fill="#FFE492"/>
<path d="M568.874 11.7054C568.867 11.6886 568.834 11.6688 568.853 11.6535C568.979 11.5694 569.747 11.5421 569.948 11.615C569.982 11.6287 569.996 11.6516 569.969 11.6653C569.929 11.6868 569.856 11.7144 569.776 11.7206C569.569 11.7362 569.356 11.7442 569.142 11.7461C569.048 11.7463 568.961 11.7205 568.874 11.7054Z" fill="#FFE492"/>
<path d="M210.759 12.2374C209.971 12.2708 209.958 12.2677 210.097 12.1912C210.223 12.1222 210.456 12.0806 210.797 12.08C210.897 12.0798 211.004 12.0766 211.091 12.0826C211.184 12.09 211.318 12.1051 211.338 12.1234C211.379 12.1584 211.266 12.1968 211.066 12.2231C210.979 12.2355 210.865 12.2326 210.759 12.2374Z" fill="#FFE492"/>
<path d="M348.268 3.67288C348.035 3.69922 347.834 3.69041 347.687 3.64183C347.539 3.59324 347.772 3.53484 348.18 3.52041C348.286 3.51718 348.4 3.50479 348.5 3.51072C348.6 3.51513 348.701 3.53325 348.761 3.55146C348.868 3.5818 348.802 3.62313 348.589 3.6586C348.502 3.67248 348.375 3.66964 348.268 3.67288Z" fill="#FFE492"/>
<path d="M665.039 16.4919C665.098 16.472 665.158 16.4521 665.224 16.4337C665.471 16.4592 665.578 16.4895 665.512 16.5246C665.472 16.546 665.392 16.5644 665.333 16.5843C665.086 16.5588 664.986 16.527 665.039 16.4919Z" fill="#FFE492"/>
<path d="M221.497 29.505C221.497 29.4868 221.59 29.4576 221.663 29.4514C221.803 29.4405 221.976 29.4615 222.097 29.504C222.264 29.5647 222.164 29.5969 221.858 29.5807C221.645 29.5688 221.498 29.5386 221.497 29.505Z" fill="#FFE492"/>
<path d="M571.581 10.2839C571.668 10.2975 571.755 10.3111 571.835 10.3262C571.722 10.3828 571.583 10.4075 571.436 10.3925C571.343 10.3835 571.263 10.3653 571.176 10.3517C571.288 10.2951 571.421 10.2735 571.581 10.2839Z" fill="#FFE492"/>
<path d="M569.266 10.2209C569.398 10.1978 569.558 10.2098 569.746 10.2537C569.686 10.2736 569.633 10.2966 569.56 10.312C569.433 10.3366 569.267 10.3247 569.086 10.2792C569.139 10.2608 569.199 10.2409 569.266 10.2209Z" fill="#FFE492"/>
<path d="M567.495 10.2923C567.582 10.3059 567.669 10.3195 567.749 10.3346C567.636 10.3912 567.503 10.4158 567.35 10.4008C567.257 10.3918 567.177 10.3737 567.09 10.3601C567.202 10.3035 567.335 10.2804 567.495 10.2923Z" fill="#FFE492"/>
<path d="M566.193 10.215C566.293 10.2452 566.24 10.2819 566.048 10.3233C565.961 10.3098 565.861 10.2993 565.794 10.2811C565.687 10.2524 565.74 10.2142 565.939 10.1728C566.019 10.1878 566.106 10.2014 566.193 10.215Z" fill="#FFE492"/>
</svg>
